<svg width="32" height="32" viewBox="0 0 32 32" fill="none" xmlns="http://www.w3.org/2000/svg">
<path d="M16.5714 13.7154H1.71429C0.7675 13.7154 0 14.4828 0 15.4296V30.2856C0 31.2324 0.7675 31.9998 1.71429 31.9998H16.5714C17.5182 31.9998 18.2857 31.2324 18.2857 30.2856V15.4296C18.2857 14.4828 17.5182 13.7154 16.5714 13.7154ZM4.57143 27.4287C3.30911 27.4287 2.28571 26.4054 2.28571 25.1432C2.28571 23.8809 3.30911 22.8576 4.57143 22.8576C5.83375 22.8576 6.85714 23.8809 6.85714 25.1432C6.85714 26.4054 5.83375 27.4287 4.57143 27.4287ZM10.2857 27.4287C9.0234 27.4287 8.00001 26.4054 8.00001 25.1432C8.00001 23.8809 9.0234 22.8576 10.2857 22.8576C11.548 22.8576 12.5714 23.8809 12.5714 25.1432C12.5714 26.4054 11.548 27.4287 10.2857 27.4287Z" fill="url(#paint0_linear_1_20)"/>
<path d="M16.5714 13.7156H1.71429C0.7675 13.7156 0 14.483 0 15.4297V30.2858C0 31.2325 0.7675 32 1.71429 32H16.5714C17.5182 32 18.2857 31.2325 18.2857 30.2858V15.4297C18.2857 14.483 17.5182 13.7156 16.5714 13.7156ZM4.57143 27.4289C3.30911 27.4289 2.28571 26.4056 2.28571 25.1433C2.28571 23.8811 3.30911 22.8578 4.57143 22.8578C5.83375 22.8578 6.85714 23.8811 6.85714 25.1433C6.85714 26.4056 5.83375 27.4289 4.57143 27.4289ZM10.2857 27.4289C9.0234 27.4289 8.00001 26.4056 8.00001 25.1433C8.00001 23.8811 9.0234 22.8578 10.2857 22.8578C11.548 22.8578 12.5714 23.8811 12.5714 25.1433C12.5714 26.4056 11.548 27.4289 10.2857 27.4289Z" fill="url(#paint1_linear_1_20)"/>
<path d="M16.5654 11.4242H8.70931C7.76324 11.4242 6.99609 10.6572 6.99609 9.71106V1.85555C6.99609 0.329404 8.84145 -0.434827 9.92056 0.644203L17.7766 8.49972C18.8559 9.57892 18.0915 11.424 16.5652 11.424L16.5654 11.4242Z" fill="url(#paint2_linear_1_20)"/>
<path d="M30.2618 25.1432H22.3062C21.3482 25.1432 20.5714 24.3664 20.5714 23.4085V15.4535C20.5714 13.9081 22.44 13.134 23.5328 14.2268L31.4884 22.1818C32.5812 23.2745 31.8073 25.143 30.2616 25.143L30.2618 25.1432Z" fill="url(#paint3_linear_1_20)"/>
<path d="M30.2618 11.4279H22.3062C21.3482 11.4279 20.5714 10.6512 20.5714 9.69319V1.73822C20.5714 0.192798 22.44 -0.581255 23.5328 0.511525L31.4884 8.46649C32.5812 9.55927 31.8073 11.4277 30.2616 11.4277L30.2618 11.4279Z" fill="url(#paint4_linear_1_20)"/>
<defs>
<linearGradient id="paint0_linear_1_20" x1="0.471606" y1="31.5284" x2="26.6497" y2="5.34823" gradientUnits="userSpaceOnUse">
<stop stop-color="#EC476D"/>
<stop offset="1" stop-color="#F6AE4A"/>
</linearGradient>
<linearGradient id="paint1_linear_1_20" x1="9.14286" y1="31.9266" x2="9.14286" y2="24.975" gradientUnits="userSpaceOnUse">
<stop stop-color="#DB44DB" stop-opacity="0.3"/>
<stop offset="0.11" stop-color="#DB44DB" stop-opacity="0.21"/>
<stop offset="0.27" stop-color="#DB44DB" stop-opacity="0.12"/>
<stop offset="0.44" stop-color="#DB44DB" stop-opacity="0.05"/>
<stop offset="0.65" stop-color="#DB44DB" stop-opacity="0.01"/>
<stop offset="1" stop-color="#DB44DB" stop-opacity="0"/>
</linearGradient>
<linearGradient id="paint2_linear_1_20" x1="-6.2723" y1="24.6916" x2="20.547" y2="-2.12947" gradientUnits="userSpaceOnUse">
<stop stop-color="#EC476D"/>
<stop offset="1" stop-color="#F6AE4A"/>
</linearGradient>
<linearGradient id="paint3_linear_1_20" x1="7.36249" y1="38.3512" x2="34.2" y2="11.5119" gradientUnits="userSpaceOnUse">
<stop stop-color="#EC476D"/>
<stop offset="1" stop-color="#F6AE4A"/>
</linearGradient>
<linearGradient id="paint4_linear_1_20" x1="0.504457" y1="31.4934" x2="27.3418" y2="4.65415" gradientUnits="userSpaceOnUse">
<stop stop-color="#EC476D"/>
<stop offset="1" stop-color="#F6AE4A"/>
</linearGradient>
</defs>
</svg>
