<?xml version="1.0" encoding="UTF-8" standalone="no"?>
<!-- Created with Inkscape (http://www.inkscape.org/) -->

<svg
   xmlns:dc="http://purl.org/dc/elements/1.1/"
   xmlns:cc="http://creativecommons.org/ns#"
   xmlns:rdf="http://www.w3.org/1999/02/22-rdf-syntax-ns#"
   xmlns:svg="http://www.w3.org/2000/svg"
   xmlns="http://www.w3.org/2000/svg"
   xmlns:sodipodi="http://sodipodi.sourceforge.net/DTD/sodipodi-0.dtd"
   xmlns:inkscape="http://www.inkscape.org/namespaces/inkscape"
   version="1.1"
   id="svg3167"
   width="32"
   height="32"
   viewBox="0 0 32 32"
   sodipodi:docname="favicon.svg"
   inkscape:version="0.92.5 (2060ec1f9f, 2020-04-08)">
  <metadata
     id="metadata3173">
    <rdf:RDF>
      <cc:Work
         rdf:about="">
        <dc:format>image/svg+xml</dc:format>
        <dc:type
           rdf:resource="http://purl.org/dc/dcmitype/StillImage" />
        <dc:title></dc:title>
      </cc:Work>
    </rdf:RDF>
  </metadata>
  <defs
     id="defs3171" />
  <sodipodi:namedview
     pagecolor="#ffffff"
     bordercolor="#666666"
     borderopacity="1"
     objecttolerance="10"
     gridtolerance="10"
     guidetolerance="10"
     inkscape:pageopacity="0"
     inkscape:pageshadow="2"
     inkscape:window-width="1848"
     inkscape:window-height="1136"
     id="namedview3169"
     showgrid="false"
     inkscape:zoom="10.24"
     inkscape:cx="42.107587"
     inkscape:cy="10.324922"
     inkscape:window-x="72"
     inkscape:window-y="27"
     inkscape:window-maximized="1"
     inkscape:current-layer="svg3167" />
  <rect
     style="opacity:1;fill:#fffff4;fill-opacity:1;stroke:#000000;stroke-width:0.04923712;stroke-linecap:round;stroke-linejoin:round;stroke-miterlimit:4;stroke-dasharray:none;stroke-opacity:1"
     id="rect2733"
     width="29.644392"
     height="29.393166"
     x="0.94950104"
     y="1.1031127"
     ry="4.2708025" />
  <path
     inkscape:connector-curvature="0"
     id="path64"
     style="fill:#ff4930;fill-opacity:1;fill-rule:nonzero;stroke:none;stroke-width:0.39787254"
     d="m 9.6198102,14.570478 c 0.14921,-0.0402 0.186603,-0.235947 0.06088,-0.323076 -4.0893345,-2.900098 -2.5225096,-8.4050656 1.8262338,-9.9297111 2.792672,-0.9807534 5.471937,-0.7647081 8.038219,0.6497262 0.110212,0.058884 0.245488,0.023066 0.310733,-0.080769 0.862591,-1.3726643 2.559528,-2.586168 4.216663,-2.0534229 1.690955,0.5443014 1.888295,3.1722394 0.08515,3.7754251 -0.626251,0.2128492 -1.518284,0.026246 -2.326368,0.2033082 -0.198931,0.04059 -0.294028,0.267372 -0.185014,0.438452 2.118275,3.3926605 -0.119752,7.0483175 -3.587215,8.1285285 -1.726757,0.537532 -3.430055,0.631038 -5.111468,0.282897 -0.510073,-0.104244 -0.875313,0.07759 -1.095735,0.549859 l -0.04656,0.0951 c -0.220816,0.472271 -0.0748,0.750381 0.438058,0.839101 2.61402,0.447614 5.152056,0.828378 7.615685,1.145487 1.647184,0.21126 3.005521,0.724119 4.078191,1.540154 2.202223,1.673856 1.868001,4.982568 -0.301585,6.678293 -3.433251,2.685641 -12.329275,3.061635 -16.0207348,0.545482 -3.2370908,-2.211371 -0.7428389,-4.687328 1.67702,-5.738112 0.02507,-0.01228 0.02507,-0.04815 0,-0.05888 C 7.420767,20.367877 5.8400239,18.832084 7.2063275,16.665679 7.3694558,16.406258 7.686549,16.101493 8.1576392,15.748581 c 0.498532,-0.372813 0.817231,-1.008606 1.462171,-1.178095 z m 6.9568108,-2.763231 c 0.862592,-0.689906 0.909132,-2.5396265 0.533155,-3.4642825 -0.19616,-0.483402 -0.397878,-0.785002 -0.601595,-0.901574 -4.903374,-2.781919 -5.574985,6.5947365 -0.635793,4.9690265 0.256619,-0.08395 0.503697,-0.443222 0.704233,-0.60317 z m 3.40181,12.977412 c 1.229421,-1.106489 -0.588859,-1.82305 -1.384599,-1.936442 -1.953555,-0.284486 -3.910292,-0.557825 -5.867027,-0.820427 -0.0931,-0.01275 -0.177063,0.0091 -0.250259,0.06526 -1.462581,1.115636 -1.922523,2.679264 0.298405,3.231123 1.816673,0.450779 5.695933,0.815626 7.20348,-0.539515 z" />
</svg>
