<?xml version="1.0" encoding="UTF-8" standalone="no"?>
<svg
   xmlns:dc="http://purl.org/dc/elements/1.1/"
   xmlns:cc="http://creativecommons.org/ns#"
   xmlns:rdf="http://www.w3.org/1999/02/22-rdf-syntax-ns#"
   xmlns:svg="http://www.w3.org/2000/svg"
   xmlns="http://www.w3.org/2000/svg"
   xmlns:xlink="http://www.w3.org/1999/xlink"
   xmlns:sodipodi="http://sodipodi.sourceforge.net/DTD/sodipodi-0.dtd"
   xmlns:inkscape="http://www.inkscape.org/namespaces/inkscape"
   viewBox="0 0 1792 1792"
   version="1.1"
   id="svg4274"
   sodipodi:docname="splash.svg"
   inkscape:version="0.92.5 (2060ec1f9f, 2020-04-08)">
  <metadata
     id="metadata4278">
    <rdf:RDF>
      <cc:Work
         rdf:about="">
        <dc:format>image/svg+xml</dc:format>
        <dc:type
           rdf:resource="http://purl.org/dc/dcmitype/StillImage" />
        <dc:title></dc:title>
      </cc:Work>
    </rdf:RDF>
  </metadata>
  <sodipodi:namedview
     pagecolor="#ffffff"
     bordercolor="#666666"
     borderopacity="1"
     objecttolerance="10"
     gridtolerance="10"
     guidetolerance="10"
     inkscape:pageopacity="0"
     inkscape:pageshadow="2"
     inkscape:window-width="1848"
     inkscape:window-height="1136"
     id="namedview4276"
     showgrid="false"
     inkscape:zoom="0.13169643"
     inkscape:cx="896"
     inkscape:cy="896"
     inkscape:window-x="72"
     inkscape:window-y="27"
     inkscape:window-maximized="1"
     inkscape:current-layer="svg4274" />
  <style
     id="style4221">
    /* Eyes */
    @keyframes firefish-logo-blink {
      95% {
        transform: scaleY(1);
      }

      97.5% {
        transform: scaleY(0);
      }

      100% {
        transform: scaleY(1);
      }
    }

    #firefish-logo-eye-l,
    #firefish-logo-eye-r {
      transform-origin: center;
      transform-box: fill-box;
      animation-name: firefish-logo-blink;
      animation-duration: 3s;
      animation-iteration-count: infinite;
      animation-timing-function: ease-in-out;
    }

    /* Bubbles */
    @keyframes firefish-logo-bloop {
      0% {
        transform: translateY(400px);
        opacity: 0;
      }

      20% {
        opacity: 0;
      }

      30% {
        opacity: 1;
      }

      80% {
        opacity: 1;
      }

      90% {
        opacity: 0;
      }

      100% {
        transform: translateY(-400px);
      }
    }

    .firefish-logo-bubble {
      animation-name: firefish-logo-bloop;
      animation-fill-mode: forwards;
      animation-iteration-count: infinite;
      animation-duration: 2s;
      animation-timing-function: ease-out;
      fill: #31748f;
      opacity: 0;
    }

    #firefish-logo-bubble-1 {
      animation-delay: 0s;
    }

    #firefish-logo-bubble-2 {
      animation-delay: .2s;
    }

    #firefish-logo-bubble-3 {
      animation-delay: .6s;
    }

    #firefish-logo-bubble-4 {
      animation-delay: .8s;
    }

    #firefish-logo-bubble-5 {
      animation-delay: 1s;
    }
  </style>
  <defs
     id="defs4244">
    <linearGradient
       id="firefish-logo-linear-gradient"
       x1="26.41"
       y1="1765.71"
       x2="1492.49"
       y2="299.62"
       gradientUnits="userSpaceOnUse">
      <stop
         offset="0"
         stop-color="#ec476d"
         id="stop4223" />
      <stop
         offset="1"
         stop-color="#f6ae4a"
         id="stop4225" />
    </linearGradient>
    <linearGradient
       id="firefish-logo-linear-gradient-purple"
       x1="512"
       y1="1788"
       x2="512"
       y2="1398.68"
       gradientUnits="userSpaceOnUse">
      <stop
         offset="0"
         stop-color="#db44db"
         stop-opacity=".3"
         id="stop4228" />
      <stop
         offset=".11"
         stop-color="#db44db"
         stop-opacity=".21"
         id="stop4230" />
      <stop
         offset=".27"
         stop-color="#db44db"
         stop-opacity=".12"
         id="stop4232" />
      <stop
         offset=".44"
         stop-color="#db44db"
         stop-opacity=".05"
         id="stop4234" />
      <stop
         offset=".65"
         stop-color="#db44db"
         stop-opacity=".01"
         id="stop4236" />
      <stop
         offset="1"
         stop-color="#db44db"
         stop-opacity="0"
         id="stop4238" />
    </linearGradient>
    <linearGradient
       id="firefish-logo-linear-gradient-3"
       x1="-351.25"
       y1="1382.82"
       x2="1150.74"
       y2="-119.17"
       xlink:href="#firefish-logo-linear-gradient" />
    <linearGradient
       id="firefish-logo-linear-gradient-4"
       x1="412.3"
       y1="2147.8"
       x2="1915.31"
       y2="644.8"
       xlink:href="#firefish-logo-linear-gradient" />
    <linearGradient
       id="firefish-logo-linear-gradient-5"
       x1="28.25"
       y1="1763.75"
       x2="1531.25"
       y2="260.75"
       xlink:href="#firefish-logo-linear-gradient" />
  </defs>
  <!-- Bubbles -->
  <rect
     style="opacity:1;fill:#fffff4;fill-opacity:1;stroke:#000000;stroke-width:2.45744252;stroke-linecap:round;stroke-linejoin:round;stroke-miterlimit:4;stroke-dasharray:none;stroke-opacity:1"
     id="rect2733"
     width="1479.5624"
     height="1467.0236"
     x="161.02609"
     y="141.04506"
     ry="213.15732" />
  <path
     inkscape:connector-curvature="0"
     id="path64"
     style="fill:#ff4930;fill-opacity:1;fill-rule:nonzero;stroke:none;stroke-width:19.85796356"
     d="m 593.75705,813.20749 c 7.44662,-1.99642 9.31323,-11.77386 3.04447,-16.12104 C 392.7031,652.34143 470.90265,377.58486 687.94786,301.49152 c 139.38468,-48.95209 273.10954,-38.17144 401.19444,32.42676 5.5002,2.94472 12.2481,1.14795 15.5072,-4.04274 43.0527,-68.51195 127.7456,-129.07818 210.457,-102.48594 84.3935,27.16621 94.2458,158.32566 4.2424,188.43162 -31.2539,10.6259 -75.7789,1.29765 -116.1114,10.14674 -9.9272,2.04633 -14.6737,13.34601 -9.2334,21.8857 105.7251,169.32591 -5.9743,351.78322 -179.0385,405.69644 -86.18027,26.82676 -171.19258,31.49338 -255.11688,14.11963 -25.45428,-5.20069 -43.68652,3.893 -54.68677,27.44571 l -2.34577,4.74146 c -11.02025,23.56766 -3.74332,37.44775 21.86569,41.8798 130.46574,22.33988 257.14325,41.34075 380.10243,57.16738 82.2123,10.54602 150.0056,36.14502 203.5444,76.87192 109.9126,83.5449 93.2326,248.6834 -15.0529,333.3164 -171.3573,134.0393 -615.35995,152.8056 -799.59904,27.2261 -161.56484,-110.3718 -37.07841,-233.9499 83.69969,-286.3907 1.24773,-0.5989 1.24773,-2.3957 0,-2.9447 -93.39229,-44.4452 -172.29059,-121.0975 -104.09806,-229.22336 8.14537,-12.94676 23.97195,-28.15446 47.48472,-45.77281 24.88032,-18.60659 40.78675,-50.33959 72.97393,-58.79439 z M 940.97342,675.2952 c 43.0527,-34.43318 45.37853,-126.7524 26.61222,-172.90446 -9.79239,-24.12672 -19.85932,-39.17962 -30.02606,-44.99421 -244.73048,-138.85064 -278.25026,329.14385 -31.733,248.00461 12.80696,-4.19251 25.13982,-22.12027 35.14684,-30.10594 z m 169.78508,647.7068 c 61.3648,-55.2259 -29.3872,-90.9866 -69.1058,-96.6464 -97.49994,-14.1996 -195.15956,-27.84 -292.82417,-40.9465 -4.64169,-0.6488 -8.83413,0.4991 -12.48759,3.2442 -72.9989,55.685 -95.95765,133.7248 14.89325,161.2654 90.66717,22.4996 284.28441,40.7119 359.52431,-26.9267 z" />
</svg>
