<?xml version="1.0" encoding="UTF-8" standalone="no"?>
<!-- Created with Inkscape (http://www.inkscape.org/) -->

<svg
   xmlns:dc="http://purl.org/dc/elements/1.1/"
   xmlns:cc="http://creativecommons.org/ns#"
   xmlns:rdf="http://www.w3.org/1999/02/22-rdf-syntax-ns#"
   xmlns:svg="http://www.w3.org/2000/svg"
   xmlns="http://www.w3.org/2000/svg"
   xmlns:sodipodi="http://sodipodi.sourceforge.net/DTD/sodipodi-0.dtd"
   xmlns:inkscape="http://www.inkscape.org/namespaces/inkscape"
   width="210mm"
   height="297mm"
   viewBox="0 0 210 297"
   version="1.1"
   id="svg8"
   inkscape:version="0.92.5 (2060ec1f9f, 2020-04-08)"
   sodipodi:docname="title.svg">
  <defs
     id="defs2" />
  <sodipodi:namedview
     id="base"
     pagecolor="#ffffff"
     bordercolor="#666666"
     borderopacity="1.0"
     inkscape:pageopacity="0.0"
     inkscape:pageshadow="2"
     inkscape:zoom="1.4"
     inkscape:cx="294.77009"
     inkscape:cy="312.92362"
     inkscape:document-units="mm"
     inkscape:current-layer="layer1"
     showgrid="false"
     inkscape:window-width="3768"
     inkscape:window-height="2096"
     inkscape:window-x="72"
     inkscape:window-y="27"
     inkscape:window-maximized="1" />
  <metadata
     id="metadata5">
    <rdf:RDF>
      <cc:Work
         rdf:about="">
        <dc:format>image/svg+xml</dc:format>
        <dc:type
           rdf:resource="http://purl.org/dc/dcmitype/StillImage" />
        <dc:title></dc:title>
      </cc:Work>
    </rdf:RDF>
  </metadata>
  <g
     inkscape:label="Capa 1"
     inkscape:groupmode="layer"
     id="layer1">
    <g
       style="fill:none;stroke-width:2;stroke-linecap:butt"
       id="g859"
       transform="matrix(0.26458333,0,0,0.26458333,68.413691,194.71965)">
      <path
         style="vector-effect:non-scaling-stroke;stroke:#808080"
         inkscape:connector-curvature="0"
         d="m 190.22,61.14 0.08,66.1 a 0.44,0.44 0 0 0 0.44,0.44 h 11.62 a 1.05,1.03 -73.2 0 0 0.87,-0.48 l 2.17,-3.35 q 0.6,-0.94 1.49,-0.26 c 4.3,3.26 8.45,4.38 14.61,4.91 10.76,0.94 19.99,-7.98 23.25,-18.01 q 4.68,-14.44 -1.26,-26.88 -3.77,-7.91 -10.26,-11.26 c -6.45,-3.34 -13.81,-2.92 -20.45,0.71 q -1.97,1.08 -3.97,2.04 a 0.4,0.4 0 0 1 -0.58,-0.36 l -0.01,-29.21 q 0,-0.41 -0.4,-0.45 -4.38,-0.47 -5.62,0.03 -9.38,3.79 -19.52,4.43 -0.49,0.03 -0.5,0.52 l -0.01,9.92 a 0.57,0.56 90 0 0 0.56,0.57 l 6.91,0.01 q 0.58,0 0.58,0.58"
         id="path837" />
      <path
         style="vector-effect:non-scaling-stroke;stroke:#808080"
         inkscape:connector-curvature="0"
         d="m 262.72,61.01 q 0.17,26.25 -0.09,52.49 -0.04,4.19 -7.78,3.25 -0.34,-0.04 -0.34,0.31 l -0.01,10.15 q 0,0.46 0.46,0.46 h 33.81 a 0.44,0.44 0 0 0 0.44,-0.44 v -9.74 q 0,-0.53 -0.52,-0.56 c -2.46,-0.15 -7.97,0.55 -7.98,-3.18 q -0.02,-34.06 -0.01,-68.13 0,-0.46 -0.45,-0.53 -4.07,-0.55 -6.01,0.17 -9.31,3.49 -19.27,4.29 -0.46,0.03 -0.46,0.49 l -0.01,9.98 q 0,0.52 0.52,0.52 l 7.2,-0.03 q 0.5,0 0.5,0.5"
         id="path839" />
      <path
         style="vector-effect:non-scaling-stroke;stroke:#808080"
         inkscape:connector-curvature="0"
         d="m 309.6764,65.303 a 10.32,10.11 104.9 0 0 12.4237,-7.3734 10.32,10.11 104.9 0 0 -7.1165,-12.5726 10.32,10.11 104.9 0 0 -12.4237,7.3734 10.32,10.11 104.9 0 0 7.1165,12.5726"
         id="path841" />
      <path
         style="vector-effect:non-scaling-stroke;stroke:#808080"
         inkscape:connector-curvature="0"
         d="m 58.69,106.42 c -2.16,0.57 -3.23,2.7 -4.9,3.95 q -2.37,1.77 -3.19,3.07 c -4.58,7.26 0.72,12.41 6.99,15.39 a 0.11,0.11 0 0 1 0,0.2 c -8.11,3.52 -16.47,11.82 -5.62,19.23 12.37,8.43 42.18,7.17 53.69,-1.83 7.27,-5.68 8.39,-16.77 1.01,-22.38 q -5.39,-4.1 -13.67,-5.16 -12.38,-1.59 -25.52,-3.84 -2.58,-0.44 -1.47,-2.81 l 0.16,-0.32 q 1.11,-2.37 3.67,-1.84 8.45,1.75 17.13,-0.95 c 11.62,-3.62 19.12,-15.87 12.02,-27.24 a 0.97,0.97 0 0 1 0.62,-1.47 c 2.71,-0.59 5.7,0.03 7.8,-0.68 6.04,-2.02 5.38,-10.83 -0.29,-12.65 -5.55,-1.79 -11.24,2.28 -14.13,6.88 a 0.79,0.78 30.2 0 1 -1.04,0.27 Q 79.05,67.13 65.01,72.06 c -14.57,5.11 -19.82,23.56 -6.12,33.28 a 0.61,0.6 -34.7 0 1 -0.2,1.08"
         id="path843" />
      <path
         style="vector-effect:non-scaling-stroke;stroke:#808080"
         inkscape:connector-curvature="0"
         d="m 178.01,97.33 c 0.28,-6.62 -2.63,-12.55 -6.98,-17.46 -13.6,-15.33 -45.28,-12.68 -53.2,7.72 -5.18,13.33 -1.58,30.23 11.37,37.59 7.83,4.46 19.17,5.44 27.96,2.99 q 15.87,-4.41 20.31,-20.49 c 0.83,-3.01 0.41,-7.04 0.54,-10.35"
         id="path845" />
      <path
         style="vector-effect:non-scaling-stroke;stroke:#808080"
         inkscape:connector-curvature="0"
         d="m 303.41,86.17 q 0.1,11.76 0.02,23.74 -0.03,4.98 -0.44,5.56 -1.47,2.04 -7.14,1.26 a 0.57,0.57 0 0 0 -0.65,0.57 v 9.76 q 0,0.61 0.61,0.61 h 33.55 q 0.4,0 0.4,-0.4 l 0.02,-9.8 a 0.59,0.59 0 0 0 -0.58,-0.59 q -1.39,-0.01 -4.47,-0.1 c -3.69,-0.12 -3.43,-2.7 -3.43,-5.8 q 0,-20.17 -0.01,-40.35 0,-0.45 -0.45,-0.5 -4.08,-0.49 -5.36,0.15 -9.15,4.53 -19.57,4.51 -0.68,-0.01 -0.69,0.68 L 295.19,85 q 0,0.56 0.56,0.56 l 7.01,-0.03 q 0.64,0 0.65,0.64"
         id="path847" />
      <path
         style="vector-effect:non-scaling-stroke;stroke:#808080"
         inkscape:connector-curvature="0"
         d="m 361.29,76.67 0.06,-5.75 q 0.01,-0.71 -0.69,-0.81 c -2.62,-0.36 -4.46,-0.1 -7.12,0.88 q -7.72,2.85 -15.79,3.69 a 0.65,0.64 -3 0 0 -0.58,0.64 l -0.02,9.77 q 0,0.44 0.44,0.44 l 7.41,0.01 q 0.48,0 0.48,0.48 0.06,13.62 0.09,27.23 c 0.01,4.39 -4.96,3.65 -7.78,3.63 a 0.58,0.58 0 0 0 -0.59,0.59 l 0.12,9.46 q 0.01,0.73 0.74,0.73 h 31.3 a 0.4,0.39 0 0 0 0.4,-0.39 l 0.01,-9.04 q 0,-1.23 -1.23,-1.27 c -5.03,-0.15 -5.07,-0.96 -5.09,-5.72 q -0.02,-10.86 -0.02,-21.75 0,-0.5 0.4,-0.81 c 4.33,-3.33 17.04,-10.6 17.12,1.07 q 0.09,11.12 0.03,22.25 -0.01,1.95 -0.5,3.5 a 1.15,1.13 -1.2 0 1 -0.71,0.73 q -2.31,0.82 -4.75,0.58 -0.51,-0.05 -0.51,0.47 v 9.81 q 0,0.58 0.58,0.58 l 31.65,-0.01 q 0.65,0 0.65,-0.65 l -0.02,-9.51 q 0,-0.59 -0.58,-0.61 c -3,-0.1 -7.79,1.01 -7.84,-3.63 Q 398.83,100.63 398.9,88 C 399.02,67.69 377.88,66.63 364.97,75.23 q -1.44,0.96 -3.01,1.83 a 0.45,0.44 -14.4 0 1 -0.67,-0.39"
         id="path849" />
      <path
         style="vector-effect:non-scaling-stroke;stroke:#808080"
         inkscape:connector-curvature="0"
         d="m 223.54,112.77 c 5.27,-6.15 4.7,-17.35 1.87,-24.2 q -1.46,-3.52 -3.92,-4.71 c -4.36,-2.12 -9.54,0.19 -12.91,3.28 q -0.36,0.34 -0.37,0.84 -0.01,9.13 0.03,18.27 0.02,3.76 1.63,6.3 c 3.15,4.97 9.99,4.51 13.67,0.22"
         id="path851" />
      <path
         style="vector-effect:non-scaling-stroke;stroke:#808080"
         inkscape:connector-curvature="0"
         d="m 82,97.16 c 2.89,-2.31 3.05,-8.51 1.79,-11.61 Q 82.8,83.12 81.77,82.53 C 65.34,73.21 63.09,104.63 79.64,99.18 80.5,98.9 81.33,97.7 82,97.16"
         id="path853" />
      <path
         style="vector-effect:non-scaling-stroke;stroke:#808080"
         inkscape:connector-curvature="0"
         d="m 93.4,140.65 c 4.12,-3.71 -1.97,-6.11 -4.64,-6.49 q -9.82,-1.43 -19.66,-2.75 -0.47,-0.06 -0.84,0.22 c -4.9,3.74 -6.44,8.98 1,10.83 6.09,1.51 19.09,2.73 24.14,-1.81"
         id="path855" />
      <path
         style="vector-effect:non-scaling-stroke;stroke:#808080"
         inkscape:connector-curvature="0"
         d="m 147.03,82.64 c -12.37,-0.15 -13.21,16.56 -10.96,24.74 3.64,13.19 18.22,12.68 21.65,-0.14 2.25,-8.41 1.24,-24.45 -10.69,-24.6"
         id="path857" />
    </g>
    <path
       style="fill:#000000;stroke-width:0.26458332"
       inkscape:connector-curvature="0"
       d="m 118.58927,210.74282 -1.82827,-0.003 a 0.14816666,0.1508125 0 0 1 -0.14816,-0.15081 l 0.003,-2.62467 q 0.003,-0.12964 0.13229,-0.13758 2.68288,-0.16934 5.16467,-1.17211 0.32808,-0.13229 1.48696,-0.008 0.10583,0.0106 0.10583,0.11906 l 0.003,7.72848 a 0.10583333,0.10583333 0 0 0 0.15346,0.0952 q 0.52916,-0.254 1.05039,-0.53975 c 1.75684,-0.96044 3.70417,-1.07156 5.41073,-0.18786 q 1.71715,0.88636 2.71463,2.97921 1.57162,3.29142 0.33337,7.112 c -0.86254,2.65377 -3.30464,5.01386 -6.15156,4.76515 -1.62983,-0.14023 -2.72786,-0.43656 -3.86556,-1.29911 q -0.23548,-0.17991 -0.39423,0.0688 l -0.57415,0.88635 a 0.27252083,0.2778125 16.8 0 1 -0.23019,0.127 h -3.07445 a 0.11641667,0.11641667 0 0 1 -0.11642,-0.11642 l -0.0212,-17.48896 q 0,-0.15345 -0.15346,-0.15345 z m 8.96938,13.81389 c 1.39435,-1.62719 1.24354,-4.59052 0.49477,-6.40291 q -0.38629,-0.93134 -1.03717,-1.24619 c -1.15358,-0.56092 -2.52412,0.0503 -3.41577,0.86783 q -0.0953,0.09 -0.0979,0.22225 -0.003,2.41565 0.008,4.83394 0.005,0.99483 0.43127,1.66687 c 0.83344,1.31498 2.64319,1.19327 3.61686,0.0582 z"
       id="path863" />
    <path
       style="fill:#000000;stroke-width:0.26458332"
       inkscape:connector-curvature="0"
       d="m 137.79273,210.72959 -1.905,0.008 q -0.13758,0 -0.13758,-0.13758 l 0.003,-2.64054 q 0,-0.12171 0.12171,-0.12965 2.63525,-0.21166 5.09852,-1.13506 0.5133,-0.1905 1.59015,-0.045 0.11906,0.0185 0.11906,0.14023 -0.003,9.01436 0.003,18.02606 c 0.003,0.9869 1.4605,0.80169 2.11137,0.84138 q 0.13759,0.008 0.13759,0.14817 v 2.57704 a 0.11641667,0.11641667 0 0 1 -0.11642,0.11641 h -8.94556 q -0.12171,0 -0.12171,-0.1217 l 0.003,-2.68553 q 0,-0.0926 0.09,-0.082 2.04788,0.24871 2.05846,-0.85989 0.0688,-6.94267 0.0238,-13.88798 0,-0.13229 -0.13229,-0.13229 z"
       id="path865" />
    <ellipse
       style="fill:#000000;stroke-width:0.26458332"
       cx="163.4794"
       cy="-199.80515"
       transform="rotate(104.9)"
       rx="2.7305"
       ry="2.6749372"
       id="ellipse867" />
    <path
       style="fill:#000000;stroke-width:0.26458332"
       inkscape:connector-curvature="0"
       d="m 83.942087,222.87661 a 0.15875,0.16139583 55.3 0 0 0.05292,-0.28575 c -3.624791,-2.57175 -2.235729,-7.45331 1.61925,-8.80534 q 3.71475,-1.30439 7.127875,0.5768 a 0.20902083,0.206375 30.2 0 0 0.275167,-0.0714 c 0.764646,-1.21708 2.270125,-2.29394 3.738562,-1.82033 1.500188,0.48154 1.674813,2.81252 0.07673,3.34697 -0.555625,0.18786 -1.346729,0.0238 -2.063749,0.17992 a 0.25664583,0.25664583 0 0 0 -0.164042,0.38894 c 1.878541,3.00831 -0.105833,6.24946 -3.180292,7.20725 q -2.296583,0.71437 -4.532312,0.25135 -0.677334,-0.14023 -0.971021,0.48684 l -0.04233,0.0847 q -0.293688,0.62707 0.388937,0.74348 3.476625,0.59531 6.752167,1.016 2.19075,0.28046 3.616854,1.36525 c 1.952625,1.48431 1.656291,4.41854 -0.267229,5.92138 -3.045354,2.38125 -10.932584,2.71462 -14.205479,0.48418 -2.870729,-1.96056 -0.658813,-4.1566 1.486958,-5.08793 a 0.02910417,0.02910417 0 0 0 0,-0.0529 c -1.658938,-0.78846 -3.061229,-2.15106 -1.849438,-4.07194 q 0.216959,-0.34396 0.844021,-0.81227 c 0.441854,-0.33073 0.724959,-0.89429 1.296459,-1.0451 z m 6.167437,-2.45004 c 0.764646,-0.61119 0.806979,-2.25161 0.473604,-3.07182 q -0.261937,-0.64293 -0.534458,-0.79904 c -4.347104,-2.46591 -4.942417,5.84729 -0.563563,4.40531 0.227542,-0.0741 0.447146,-0.39158 0.624417,-0.53445 z m 3.01625,11.50673 c 1.090083,-0.98161 -0.521229,-1.61661 -1.227667,-1.71715 q -2.598208,-0.37835 -5.201708,-0.7276 -0.124354,-0.0159 -0.22225,0.0582 c -1.296458,0.98955 -1.703917,2.37596 0.264583,2.86544 1.611313,0.39952 5.050896,0.72231 6.387042,-0.47889 z"
       id="path869" />
    <path
       style="fill:#000000;stroke-width:0.26458332"
       inkscape:connector-curvature="0"
       d="m 115.51217,220.47155 c -0.0344,0.87577 0.0767,1.94204 -0.14288,2.73843 q -1.17475,4.2545 -5.37368,5.42132 c -2.32569,0.64822 -5.32607,0.38893 -7.39775,-0.79111 -3.426357,-1.94733 -4.378857,-6.41879 -3.008315,-9.94569 2.095495,-5.3975 10.477495,-6.09864 14.075835,-2.04258 1.15094,1.2991 1.92087,2.86808 1.84679,4.61963 z m -8.19679,-3.88673 c -3.2729,-0.0397 -3.49515,4.3815 -2.89984,6.54579 0.96309,3.48985 4.82071,3.35491 5.72823,-0.037 0.59532,-2.22515 0.32809,-6.46907 -2.82839,-6.50875 z"
       id="path871" />
    <path
       style="fill:#000000;stroke-width:0.26458332"
       inkscape:connector-curvature="0"
       d="m 148.69092,217.5188 q -0.003,-0.16934 -0.17198,-0.16934 l -1.85473,0.008 q -0.14817,0 -0.14817,-0.14817 l 0.008,-2.52148 q 0.003,-0.18256 0.18256,-0.17991 2.75696,0.005 5.1779,-1.19327 0.33867,-0.16934 1.41817,-0.0397 0.11906,0.0132 0.11906,0.13229 0.003,5.33929 0.003,10.67594 c 0,0.82021 -0.0688,1.50283 0.90753,1.53458 q 0.81491,0.0238 1.18268,0.0265 a 0.15610416,0.15610416 0 0 1 0.15346,0.1561 l -0.005,2.59292 q 0,0.10583 -0.10583,0.10583 h -8.87677 q -0.1614,0 -0.1614,-0.16139 v -2.58234 a 0.1508125,0.1508125 0 0 1 0.17198,-0.15081 q 1.50019,0.20638 1.88912,-0.33337 0.10848,-0.15346 0.11642,-1.47109 0.0212,-3.1697 -0.005,-6.2812 z"
       id="path873" />
    <path
       style="fill:#000000;stroke-width:0.26458332"
       inkscape:connector-curvature="0"
       d="m 164.18227,215.10844 q 0.4154,-0.23019 0.7964,-0.48419 c 3.41577,-2.27541 9.00906,-1.99495 8.97731,3.37873 q -0.0185,3.34169 0.0132,6.68338 c 0.0132,1.22766 1.28058,0.93398 2.07433,0.96044 q 0.15346,0.005 0.15346,0.16139 l 0.005,2.51619 q 0,0.17198 -0.17198,0.17198 l -8.37406,0.003 q -0.15346,0 -0.15346,-0.15345 v -2.59557 q 0,-0.13758 0.13494,-0.12435 0.64558,0.0635 1.25677,-0.15346 a 0.29897916,0.30427083 88.8 0 0 0.18786,-0.19315 q 0.12964,-0.4101 0.13229,-0.92604 0.0159,-2.94481 -0.008,-5.88698 c -0.0212,-3.08768 -3.38402,-1.16416 -4.52967,-0.2831 q -0.10583,0.082 -0.10583,0.21431 0,2.88131 0.005,5.75469 c 0.005,1.25942 0.0159,1.47373 1.34673,1.51342 q 0.32544,0.0106 0.32544,0.33602 l -0.003,2.39183 a 0.10583333,0.1031875 0 0 1 -0.10583,0.10319 h -8.28146 q -0.19314,0 -0.19579,-0.19315 l -0.0317,-2.50296 a 0.15345833,0.15345833 0 0 1 0.1561,-0.1561 c 0.74613,0.005 2.06111,0.20108 2.05846,-0.96044 q -0.008,-3.60098 -0.0238,-7.2046 0,-0.127 -0.127,-0.127 l -1.96056,-0.003 q -0.11642,0 -0.11642,-0.11641 l 0.005,-2.58498 a 0.16933333,0.17197916 87 0 1 0.15346,-0.16934 q 2.13519,-0.22225 4.17777,-0.97631 c 0.70379,-0.25929 1.19063,-0.32808 1.88383,-0.23283 q 0.18521,0.0265 0.18257,0.21431 l -0.0159,1.52135 a 0.11641667,0.1190625 75.6 0 0 0.17727,0.10319 z"
       id="path875" />
    <path
       style="fill:#ffffff;stroke-width:0.26458332"
       inkscape:connector-curvature="0"
       d="m 90.109524,220.42657 c -0.177271,0.14287 -0.396875,0.46037 -0.624417,0.53445 -4.378854,1.44198 -3.783541,-6.87122 0.563563,-4.40531 q 0.272521,0.15611 0.534458,0.79904 c 0.333375,0.82021 0.291042,2.46063 -0.473604,3.07182 z"
       id="path877" />
    <path
       style="fill:#ffffff;stroke-width:0.26458332"
       inkscape:connector-curvature="0"
       d="m 104.41554,223.13061 c -0.59531,-2.16429 -0.37306,-6.58548 2.89984,-6.54579 3.15648,0.0397 3.42371,4.2836 2.82839,6.50875 -0.90752,3.39195 -4.76514,3.52689 -5.72823,0.037 z"
       id="path879" />
    <path
       style="fill:#ffffff;stroke-width:0.26458332"
       inkscape:connector-curvature="0"
       d="m 127.55865,224.55671 c -0.97367,1.13506 -2.78342,1.25677 -3.61686,-0.0582 q -0.42597,-0.67204 -0.43127,-1.66687 -0.0106,-2.41829 -0.008,-4.83394 0.003,-0.13229 0.0979,-0.22225 c 0.89165,-0.81756 2.26219,-1.42875 3.41577,-0.86783 q 0.65088,0.31485 1.03717,1.24619 c 0.74877,1.81239 0.89958,4.77572 -0.49477,6.40291 z"
       id="path881" />
    <path
       style="fill:#ffffff;stroke-width:0.26458332"
       inkscape:connector-curvature="0"
       d="m 93.125774,231.9333 c -1.336146,1.2012 -4.775729,0.87841 -6.387042,0.47889 -1.9685,-0.48948 -1.561041,-1.87589 -0.264583,-2.86544 q 0.0979,-0.0741 0.22225,-0.0582 2.6035,0.34925 5.201708,0.7276 c 0.706438,0.10054 2.31775,0.73554 1.227667,1.71715 z"
       id="path883" />
  </g>
</svg>
