<svg id="managed-icon__npf-read-more-alt" fill="var(--icon-color-primary, #FF8A00)" viewBox="0 0 24 24">
  <rect x="1" y="18" width="22" height="2" rx="1" />
  <rect x="1" y="4" width="22" height="2" rx="1" />
  <path fill-rule="evenodd" clip-rule="evenodd"
    d="M5.9974 11.7902C5.60936 11.3555 4.93333 11.3433 4.52988 11.7638L2.67639 13.6952C2.32852 14.0577 1.72423 14.0945 1.32666 13.7773C0.929095 13.4601 0.888809 12.9091 1.23668 12.5466L4.21136 9.44676C4.79659 8.83692 5.84289 8.85392 6.4039 9.48239L7.90617 11.1653C8.30378 11.6107 9.00057 11.6107 9.39818 11.1653L10.8872 9.49719C11.4614 8.85401 12.5386 8.85401 13.1128 9.49719L14.6018 11.1653C14.9994 11.6107 15.6962 11.6107 16.0938 11.1653L17.5961 9.48239C18.1571 8.85392 19.2034 8.83692 19.7886 9.44676L22.7633 12.5466C23.1112 12.9091 23.0709 13.4601 22.6733 13.7773C22.2758 14.0945 21.6715 14.0577 21.3236 13.6952L19.4701 11.7638C19.0667 11.3433 18.3906 11.3555 18.0026 11.7902L16.4606 13.5176C15.8864 14.1608 14.8092 14.1608 14.2351 13.5176L12.746 11.8495C12.3484 11.4041 11.6516 11.4041 11.254 11.8495L9.76494 13.5176C9.19078 14.1608 8.11357 14.1608 7.53942 13.5176L5.9974 11.7902Z" />
</svg>
