<svg id="managed-icon__posts-audio-alt" fill="var(--icon-color-primary, #7C5CFF)" viewBox="0 0 24 24">
  <path fill-rule="evenodd" clip-rule="evenodd"
    d="M12 2C16.9706 2 21 6.02944 21 11V12C21 12.5523 21.4745 12.9793 21.959 13.2445C22.5793 13.5841 23 14.2429 23 15V17C23 17.7571 22.5793 18.4159 21.959 18.7555C21.4745 19.0207 21.0163 19.46 20.8356 19.9819C20.4289 21.1565 19.313 22 18 22H17C15.3431 22 14 20.6569 14 19V14C14 12.3431 15.3431 11 17 11H18C18.5523 11 19.0075 10.5497 18.9295 10.003C18.4456 6.60923 15.5275 4 12 4C8.4725 4 5.55442 6.60923 5.07047 10.003C4.9925 10.5497 5.44772 11 6 11H7C8.65685 11 10 12.3431 10 14V19C10 20.6569 8.65685 22 7 22H6C4.68703 22 3.57105 21.1565 3.16437 19.9819C2.98368 19.46 2.52548 19.0207 2.04103 18.7555C1.42067 18.4159 1 17.7571 1 17V15C1 14.2429 1.42067 13.5841 2.04103 13.2445C2.52548 12.9793 3 12.5523 3 12V11C3 6.02944 7.02944 2 12 2ZM19.2 16.2727C19.2 15.6702 18.7075 15.1818 18.1 15.1818C17.4925 15.1818 17 14.6934 17 14.0909C17 13.4884 17.4925 13 18.1 13C19.9225 13 21.4 14.4653 21.4 16.2727C21.4 16.8752 20.9075 17.3636 20.3 17.3636C19.6925 17.3636 19.2 16.8752 19.2 16.2727ZM5.18182 16.2819C5.18182 15.6744 5.67024 15.1819 6.27273 15.1819C6.87522 15.1819 7.36364 14.6894 7.36364 14.0819C7.36364 13.4744 6.87522 12.9819 6.27273 12.9819C4.46525 12.9819 3 14.4594 3 16.2819C3 16.8894 3.48842 17.3819 4.09091 17.3819C4.6934 17.3819 5.18182 16.8894 5.18182 16.2819Z" />
</svg>
