<svg id="managed-icon__npf-small" fill="var(--icon-color-primary, #444444)" viewBox="0 0 24 24">
  <path fill-rule="evenodd" clip-rule="evenodd"
    d="M12.9691 11.2352C13.6114 11.3959 14.1399 11.6526 14.508 12.0503C14.8791 12.4512 15.0734 12.9806 15.0734 13.6568C15.0734 14.3675 14.787 14.9957 14.2573 15.4439C13.7293 15.8906 12.9702 16.1501 12.0348 16.1501C10.4315 16.1501 9.36137 15.4477 8.99126 14.2722C8.90212 13.989 8.9842 13.7212 9.15739 13.5295C9.32835 13.3402 9.58819 13.2232 9.86707 13.2232C10.1404 13.2232 10.3714 13.3437 10.564 13.4995C10.7554 13.6541 10.921 13.8533 11.0632 14.0285C11.2726 14.2864 11.6165 14.4397 12.0487 14.4397H12.1601C12.464 14.4397 12.7079 14.3632 12.872 14.2395C13.0321 14.1187 13.1238 13.9479 13.1238 13.7314C13.1238 13.5391 13.0746 13.4003 12.9739 13.2931C12.8692 13.1816 12.6929 13.0868 12.4043 13.0193L12.403 13.019L11.4218 12.7802C10.73 12.6128 10.159 12.3557 9.76035 11.9623C9.35697 11.5642 9.14233 11.0391 9.14233 10.3658C9.14233 9.59759 9.45606 8.96344 9.9906 8.52414C10.5224 8.08706 11.2632 7.8501 12.1114 7.8501C12.8857 7.8501 13.5316 8.02258 14.0281 8.34705C14.5263 8.67264 14.865 9.14551 15.0311 9.72746C15.1129 10.0139 15.0253 10.2817 14.8485 10.4726C14.6739 10.6613 14.4118 10.777 14.1317 10.777C13.6021 10.777 13.2287 10.3453 12.9834 9.97443C12.8112 9.71411 12.5365 9.55308 12.1322 9.55308H12.0139C11.4377 9.55308 11.092 9.87339 11.092 10.2613C11.092 10.4372 11.152 10.5755 11.2771 10.6897C11.4078 10.8088 11.618 10.909 11.9293 10.9808L11.9312 10.9812L12.9691 11.2352Z" />
  <path fill-rule="evenodd" clip-rule="evenodd"
    d="M3.01108 12.6821C2.63435 12.3054 2.63435 11.6946 3.01108 11.3179L8.68213 5.64681C9.05887 5.27008 9.05886 4.65928 8.68213 4.28255C8.3054 3.90582 7.6946 3.90582 7.31787 4.28255L0.282548 11.3179C-0.0941833 11.6946 -0.0941825 12.3054 0.282549 12.6821L7.31787 19.7175C7.6946 20.0942 8.3054 20.0942 8.68213 19.7175C9.05887 19.3407 9.05886 18.7299 8.68213 18.3532L3.01108 12.6821Z" />
  <path fill-rule="evenodd" clip-rule="evenodd"
    d="M20.9889 12.6821C21.3657 12.3054 21.3657 11.6946 20.9889 11.3179L15.3179 5.64681C14.9411 5.27008 14.9411 4.65928 15.3179 4.28255C15.6946 3.90582 16.3054 3.90582 16.6821 4.28255L23.7175 11.3179C24.0942 11.6946 24.0942 12.3054 23.7175 12.6821L16.6821 19.7175C16.3054 20.0942 15.6946 20.0942 15.3179 19.7175C14.9411 19.3407 14.9411 18.7299 15.3179 18.3532L20.9889 12.6821Z" />
</svg>
