<svg id="managed-icon__text-lucille" fill="var(--icon-color-primary, #7C5CFF)" viewBox="0 0 24 24">
  <path
    d="M6.724 5c-.167 0-.322.091-.442.192a1.773 1.773 0 00-.36.438 2.843 2.843 0 00-.387 1.46.19.19 0 01-.1.166C2.451 8.857 0 11.861 0 15.016c0 1.256.429 2.259 1.173 2.947C1.915 18.649 2.948 19 4.116 19c1.805 0 3.455-.994 4.762-2.358.034-.037.097-.01.097.04 0 .687.227 1.245.625 1.632.397.385.942.58 1.54.58.837 0 1.601-.422 2.279-1.021.302-.268.827-.149 1.105.144l.041.042c.38.374.907.56 1.495.56.549 0 1.067-.224 1.537-.563a4.29 4.29 0 00.13-.097c.339-.266.93-.111 1.242.186.332.317.78.473 1.25.473.747 0 1.424-.394 2.023-.943.601-.55 1.154-1.283 1.653-2.02l.004-.007a.642.642 0 00.101-.341.557.557 0 00-.565-.547.564.564 0 00-.476.277c-.453.666-.934 1.3-1.402 1.765a3.588 3.588 0 01-.667.54c-.21.126-.39.183-.543.183-.184 0-.31-.057-.394-.153-.088-.102-.16-.282-.16-.584 0-.382.13-.868.334-1.402.2-.525.46-1.072.707-1.58.22-.339.402-.629.53-.87.124-.232.22-.458.22-.653a.58.58 0 00-.196-.444.718.718 0 00-.48-.164c-.222 0-.419.122-.566.28a.34.34 0 01-.424.055c-.35-.23-.793-.335-1.282-.335-1.072 0-2.235.621-3.12 1.507-.544.544-.999 1.205-1.27 1.914a1.087 1.087 0 01-.125.24c-.443.625-.919 1.202-1.39 1.64-.556.515-1.06.793-1.463.793a.8.8 0 01-.617-.26c-.152-.17-.258-.437-.258-.812 0-.546.223-1.425.765-2.735l.001-.002c.6-1.492 1.485-3.274 1.76-3.802.472-.725.835-1.338 1.083-1.84.243-.497.39-.918.39-1.244a.674.674 0 00-.196-.49.719.719 0 00-.513-.194.7.7 0 00-.474.207 1.551 1.551 0 00-.324.467c-.032.069-.128.076-.175.017-.527-.67-1.471-1.073-2.722-1.073-.834 0-1.69.14-2.525.392-.249.075-.476-.146-.32-.355.11-.135.21-.27.21-.468a.554.554 0 00-.19-.423.661.661 0 00-.44-.154zm3.184 5.025c-1.141 0-2.097-.525-2.628-1.389-.258-.42-.006-.938.462-1.093a7.16 7.16 0 012.246-.38c.66 0 1.156.153 1.48.388.317.23.482.549.482.928 0 .784-.83 1.546-2.042 1.546zM1.45 15.017c0-2.133 1.393-4.352 3.358-5.882.491-.383 1.188-.135 1.577.35.806 1.006 2.102 1.649 3.523 1.649.083 0 .165-.003.247-.008.361-.023.68.359.524.685-.617 1.253-1.104 2.018-1.91 3.075-1.269 1.634-2.9 2.913-4.62 2.913-.722 0-1.395-.24-1.886-.7-.488-.458-.813-1.148-.813-2.082zm13.927 1.527c0-.862.463-1.808 1.125-2.546.667-.744 1.477-1.214 2.118-1.214.343 0 .585.073.744.182a.66.66 0 01.12.105c.14.157.102.39.018.584-.339.777-.674 1.41-1.163 2.109-.37.51-.75.949-1.13 1.258-.384.312-.742.472-1.069.472a.698.698 0 01-.526-.224c-.136-.148-.237-.384-.237-.726z" />
</svg>
