<?xml version="1.0" encoding="UTF-8"?><svg id="firefish" xmlns="http://www.w3.org/2000/svg" viewBox="0 0 5724 2304"><g id="fish"><g id="fish-2"><g id="body"><path d="m4604.72,1024.05h-832c-53.02,0-96,42.98-96,96v832c0,53.02,42.98,96,96,96h832c53.02,0,96-42.98,96-96v-832c0-53.02-42.98-96-96-96Zm-672,768c-70.69,0-128-57.31-128-128s57.31-128,128-128,128,57.31,128,128-57.31,128-128,128Zm320,0c-70.69,0-128-57.31-128-128s57.31-128,128-128,128,57.31,128,128-57.31,128-128,128Z" fill="#fff"/></g><g id="fin-l"><path d="m4604.38,895.73h-439.94c-52.98,0-95.94-42.95-95.94-95.94v-439.94c0-85.47,103.34-128.27,163.77-67.84l439.94,439.94c60.44,60.44,17.63,163.77-67.84,163.77Z" fill="#fff"/></g><g id="fin-b"><path d="m5371.38,1664.05h-445.51c-53.65,0-97.15-43.5-97.15-97.15v-445.51c0-86.55,104.64-129.9,165.84-68.7l445.51,445.51c61.2,61.2,17.86,165.84-68.7,165.84Z" fill="#fff"/></g><g id="fin-r"><path d="m5371.38,895.94h-445.51c-53.65,0-97.15-43.5-97.15-97.15v-445.51c0-86.55,104.64-129.9,165.84-68.7l445.51,445.51c61.2,61.2,17.86,165.84-68.7,165.84Z" fill="#fff"/></g></g><g id="text"><path d="m342.4,1502.88c-36.25,0-60.17,1.54-86.4,5.4v-129.6c21.6,3.09,57.09,5.4,86.4,5.4h20.83v-36.26c0-101.83,57.86-148.88,183.6-148.88,43.2,0,74.83,4.63,117.25,16.2l-23.91,113.4c-23.91-13.11-47.06-19.29-76.37-19.29-37.8,0-52.46,15.43-52.46,55.54v19.28h22.37c32.4,0,74.06-2.31,102.6-5.4v129.6c-32.4-3.86-57.86-5.4-101.06-5.4h-23.91v235.28c0,53.23,1.54,78.69,6.17,116.48h-160.45c4.63-37.8,6.17-66.34,6.17-116.48v-235.28h-20.83Zm505.28-118.8c-4.63,31.63-6.17,62.49-6.17,116.48v237.6c0,41.66,2.31,83.31,6.17,116.48h-161.23c4.63-37.8,6.17-67.11,6.17-116.48v-237.6c0-50.14-1.54-81.77-6.17-116.48h161.23Zm-2.31-171.25v115.71h-156.6v-115.71h156.6Z" fill="#fff"/><path d="m1245.72,1522.94c-35.48-10.8-54.77-14.66-78.68-14.66-39.34,0-69.43,13.88-91.8,41.66-14.66,18.51-20.06,34.71-23.14,68.66v120.34c0,49.37,1.54,78.68,6.17,115.71h-159.68c4.63-38.57,6.17-66.34,6.17-116.48v-237.6c0-56.31-1.54-83.31-6.17-116.48h153.51v60.94c37.8-49.37,84.08-70.2,154.28-70.2,24.69,0,40.11,1.54,76.37,9.26l-37.03,138.86Z" fill="#fff"/><path d="m1389.21,1662.57c7.72,62.48,43.97,95.66,104.91,95.66,30.86,0,57.86-10.03,77.91-28.54,11.57-10.8,16.97-19.28,23.14-39.34l134.22,37.8c-17.74,40.11-29.31,57.86-50.91,79.46-43.97,43.2-105.68,65.57-182.05,65.57s-135-21.6-178.97-65.57c-45.51-46.28-70.2-111.85-70.2-188.23,0-152.74,97.97-253.8,245.31-253.8,120.34,0,204.43,65.57,231.43,180.51,6.17,24.68,9.26,57.08,11.57,101.06,0,3.09,0,7.71.77,15.43h-347.14Zm200.57-106.46c-10.8-49.37-43.97-75.6-97.2-75.6s-87.94,24.68-101.06,75.6h198.26Z" fill="#fff"/><path d="m1818.88,1502.88c-36.26,0-60.17,1.54-86.4,5.4v-129.6c21.6,3.09,57.08,5.4,86.4,5.4h20.83v-36.26c0-101.83,57.86-148.88,183.6-148.88,43.2,0,74.83,4.63,117.26,16.2l-23.91,113.4c-23.91-13.11-47.06-19.29-76.37-19.29-37.8,0-52.46,15.43-52.46,55.54v19.28h22.37c32.4,0,74.06-2.31,102.6-5.4v129.6c-32.4-3.86-57.86-5.4-101.06-5.4h-23.91v235.28c0,53.23,1.54,78.69,6.17,116.48h-160.46c4.63-37.8,6.17-66.34,6.17-116.48v-235.28h-20.83Zm505.28-118.8c-4.63,31.63-6.17,62.49-6.17,116.48v237.6c0,41.66,2.31,83.31,6.17,116.48h-161.23c4.63-37.8,6.17-67.11,6.17-116.48v-237.6c0-50.14-1.54-81.77-6.17-116.48h161.23Zm-2.31-171.25v115.71h-156.6v-115.71h156.6Z" fill="#fff"/><path d="m2494.64,1697.28c7.72,40.11,33.94,57.86,85.63,57.86,46.29,0,72.52-13.11,72.52-37.03,0-11.57-6.17-21.6-16.97-27.77-10.8-6.17-20.83-9.26-63.26-17.74-58.63-11.57-88.71-19.29-114.17-27.77-37.03-13.89-62.49-31.63-77.14-54.77-12.34-20.83-19.29-47.06-19.29-73.29,0-92.57,77.91-148.88,206.74-148.88,73.29,0,128.06,16.2,164.32,49.37,25.45,22.37,37.8,44.74,50.14,87.94l-148.89,16.2c-3.86-31.63-23.14-45.51-64.8-45.51s-64.8,13.11-64.8,33.17,16.2,28.54,92.57,45.51c75.6,16.2,99.51,23.14,126.51,37.03,50.14,24.68,74.06,62.48,74.06,118.03,0,40.89-13.89,77.91-39.34,102.6-37.03,37.03-100.28,56.31-182.83,56.31-97.2,0-165.86-26.23-202.88-77.14-15.43-21.6-23.14-40.11-30.86-77.14l152.74-16.97Z" fill="#fff"/><path d="m2817.86,1854.65c4.63-36.26,6.17-68.66,6.17-116.48v-408.85c0-53.23-1.54-86.4-6.17-116.48h159.68c-4.63,33.94-6.17,61.71-6.17,116.48v81.77c0,6.17-.77,18.51-.77,25.46,46.29-44.74,94.88-64.03,160.45-64.03,52.46,0,94.11,14.66,122.66,43.2,30.86,30.86,43.97,68.66,43.97,129.6v193.63c0,44.74,2.31,83.31,6.17,115.71h-160.46c4.63-37.03,6.17-69.43,6.17-116.48v-158.14c0-30.86-3.09-44.74-12.34-57.86-10.8-13.88-27.77-20.83-49.37-20.83-43.97,0-85.63,29.31-116.48,80.23v156.6c0,43.97,1.54,76.37,6.17,116.48h-159.68Z" fill="#fff"/></g></g></svg>