<?xml version="1.0" encoding="UTF-8" standalone="no"?>
<!-- Created with Inkscape (http://www.inkscape.org/) -->

<svg
   xmlns:dc="http://purl.org/dc/elements/1.1/"
   xmlns:cc="http://creativecommons.org/ns#"
   xmlns:rdf="http://www.w3.org/1999/02/22-rdf-syntax-ns#"
   xmlns:svg="http://www.w3.org/2000/svg"
   xmlns="http://www.w3.org/2000/svg"
   xmlns:sodipodi="http://sodipodi.sourceforge.net/DTD/sodipodi-0.dtd"
   xmlns:inkscape="http://www.inkscape.org/namespaces/inkscape"
   version="1.1"
   id="svg2"
   xml:space="preserve"
   width="362.58627"
   height="111.11915"
   viewBox="0 0 362.58627 111.11915"
   sodipodi:docname="misskey.svg"
   inkscape:version="0.92.5 (2060ec1f9f, 2020-04-08)"><metadata
     id="metadata8"><rdf:RDF><cc:Work
         rdf:about=""><dc:format>image/svg+xml</dc:format><dc:type
           rdf:resource="http://purl.org/dc/dcmitype/StillImage" /><dc:title></dc:title></cc:Work></rdf:RDF></metadata><defs
     id="defs6" /><sodipodi:namedview
     pagecolor="#ffffff"
     bordercolor="#666666"
     borderopacity="1"
     objecttolerance="10"
     gridtolerance="10"
     guidetolerance="10"
     inkscape:pageopacity="0"
     inkscape:pageshadow="2"
     inkscape:window-width="1848"
     inkscape:window-height="1136"
     id="namedview4"
     showgrid="false"
     inkscape:zoom="1.6819305"
     inkscape:cx="269.02104"
     inkscape:cy="142.82097"
     inkscape:window-x="72"
     inkscape:window-y="27"
     inkscape:window-maximized="1"
     inkscape:current-layer="g10" /><g
     id="g10"
     inkscape:groupmode="layer"
     inkscape:label="title-color"
     transform="matrix(1.3333333,0,0,1.3333333,-304.37771,-779.76438)"><g
       id="g14"><path
         inkscape:connector-curvature="0"
         id="path16"
         style="fill:none;stroke:#808080;stroke-width:1.5;stroke-linecap:butt;stroke-linejoin:miter;stroke-miterlimit:4;stroke-dasharray:none;stroke-opacity:1"
         d="m 336.594,597.816 0.058,49.575 c 0,0.183 0.149,0.332 0.332,0.332 h 8.715 c 0.262,0 0.508,-0.137 0.653,-0.364 l 1.628,-2.511 c 0.297,-0.469 0.672,-0.536 1.118,-0.196 3.222,2.446 6.336,3.286 10.957,3.684 8.07,0.707 14.992,-5.984 17.437,-13.508 2.34,-7.219 2.024,-13.937 -0.945,-20.16 -1.887,-3.953 -4.449,-6.77 -7.695,-8.445 -4.84,-2.504 -10.36,-2.188 -15.34,0.535 -0.985,0.539 -1.977,1.047 -2.977,1.527 -0.199,0.102 -0.437,-0.043 -0.433,-0.269 l -0.008,-21.907 c 0,-0.207 -0.102,-0.316 -0.301,-0.339 -2.188,-0.235 -3.594,-0.227 -4.215,0.023 -4.691,1.895 -9.57,3.004 -14.64,3.324 -0.243,0.016 -0.368,0.145 -0.376,0.391 l -0.007,7.437 c 0,0.239 0.187,0.43 0.422,0.43 l 5.183,0.008 c 0.289,0 0.434,0.144 0.434,0.433" /></g><g
       id="g18"><path
         inkscape:connector-curvature="0"
         id="path20"
         style="fill:none;stroke:#808080;stroke-width:1.5;stroke-linecap:butt;stroke-linejoin:miter;stroke-miterlimit:4;stroke-dasharray:none;stroke-opacity:1"
         d="m 390.969,597.719 c 0.086,13.125 0.062,26.246 -0.067,39.367 -0.019,2.094 -1.964,2.906 -5.836,2.437 -0.171,-0.019 -0.254,0.059 -0.254,0.235 l -0.007,7.609 c 0,0.231 0.113,0.348 0.343,0.348 h 25.36 c 0.18,0 0.328,-0.149 0.328,-0.332 v -7.305 c 0,-0.266 -0.129,-0.406 -0.391,-0.418 -1.843,-0.113 -5.976,0.41 -5.984,-2.387 -0.012,-17.031 -0.012,-34.062 -0.008,-51.097 0,-0.231 -0.113,-0.364 -0.336,-0.399 -2.035,-0.273 -3.539,-0.23 -4.508,0.129 -4.656,1.746 -9.472,2.817 -14.453,3.219 -0.23,0.016 -0.344,0.137 -0.344,0.367 l -0.007,7.485 c 0,0.257 0.129,0.39 0.39,0.39 l 5.399,-0.023 c 0.25,0 0.375,0.125 0.375,0.375" /></g><g
       id="g22"><path
         inkscape:connector-curvature="0"
         id="path24"
         style="fill:none;stroke:#808080;stroke-width:1.5;stroke-linecap:butt;stroke-linejoin:miter;stroke-miterlimit:4;stroke-dasharray:none;stroke-opacity:1"
         d="m 426.188,600.938 c 1.941,0.519 4.015,0.226 5.761,-0.813 1.75,-1.035 3.028,-2.734 3.555,-4.715 0.527,-1.984 0.262,-4.094 -0.738,-5.863 -1,-1.766 -2.657,-3.051 -4.598,-3.567 -1.945,-0.519 -4.02,-0.226 -5.766,0.813 -1.746,1.035 -3.027,2.73 -3.554,4.715 -0.528,1.984 -0.262,4.094 0.738,5.859 1.004,1.77 2.656,3.055 4.602,3.571" /></g><g
       id="g26"><path
         inkscape:connector-curvature="0"
         id="path28"
         style="fill:none;stroke:#808080;stroke-width:1.5;stroke-linecap:butt;stroke-linejoin:miter;stroke-miterlimit:4;stroke-dasharray:none;stroke-opacity:1"
         d="m 237.945,631.777 c -1.621,0.426 -2.422,2.024 -3.675,2.961 -1.184,0.887 -1.981,1.653 -2.391,2.305 -3.434,5.441 0.539,9.305 5.242,11.539 0.063,0.031 0.063,0.121 0,0.152 -6.082,2.641 -12.351,8.864 -4.215,14.422 9.278,6.324 31.637,5.379 40.266,-1.371 5.453,-4.262 6.293,-12.578 0.758,-16.785 -2.696,-2.051 -6.11,-3.34 -10.25,-3.871 -6.192,-0.797 -12.571,-1.754 -19.141,-2.879 -1.289,-0.223 -1.656,-0.922 -1.101,-2.109 l 0.117,-0.239 c 0.554,-1.187 1.472,-1.644 2.754,-1.382 4.226,0.875 8.507,0.64 12.847,-0.711 8.715,-2.715 14.34,-11.903 9.016,-20.43 -0.274,-0.43 -0.035,-1 0.465,-1.102 2.031,-0.445 4.273,0.02 5.847,-0.511 4.532,-1.516 4.036,-8.121 -0.214,-9.489 -4.165,-1.339 -8.43,1.711 -10.598,5.161 -0.164,0.261 -0.504,0.351 -0.781,0.203 -6.45,-3.555 -13.184,-4.098 -20.203,-1.633 -10.93,3.832 -14.868,17.668 -4.59,24.957 0.316,0.219 0.222,0.711 -0.153,0.812" /></g><g
       id="g30"><path
         inkscape:connector-curvature="0"
         id="path32"
         style="fill:none;stroke:#808080;stroke-width:1.5;stroke-linecap:butt;stroke-linejoin:miter;stroke-miterlimit:4;stroke-dasharray:none;stroke-opacity:1"
         d="m 327.438,624.957 c 0.207,-4.965 -1.973,-9.41 -5.239,-13.094 -10.199,-11.496 -33.957,-9.508 -39.898,5.789 -3.883,10 -1.184,22.676 8.527,28.196 5.871,3.343 14.379,4.078 20.969,2.242 7.937,-2.207 13.015,-7.328 15.234,-15.367 0.621,-2.258 0.309,-5.282 0.407,-7.766" /></g><g
       id="g34"><path
         inkscape:connector-curvature="0"
         id="path36"
         style="fill:none;stroke:#808080;stroke-width:1.5;stroke-linecap:butt;stroke-linejoin:miter;stroke-miterlimit:4;stroke-dasharray:none;stroke-opacity:1"
         d="m 421.484,616.59 c 0.051,5.879 0.059,11.812 0.016,17.805 -0.016,2.488 -0.125,3.878 -0.328,4.167 -0.734,1.02 -2.52,1.336 -5.356,0.946 -0.257,-0.035 -0.492,0.168 -0.488,0.43 v 7.32 c 0,0.304 0.152,0.457 0.457,0.457 h 25.164 c 0.199,0 0.301,-0.102 0.301,-0.301 l 0.012,-7.352 c 0,-0.242 -0.192,-0.437 -0.434,-0.441 -0.695,-0.004 -1.812,-0.031 -3.351,-0.074 -2.77,-0.09 -2.575,-2.027 -2.575,-4.352 0,-10.086 0,-20.172 -0.007,-30.261 0,-0.227 -0.11,-0.352 -0.336,-0.375 -2.039,-0.247 -3.379,-0.207 -4.02,0.113 -4.574,2.266 -9.469,3.39 -14.68,3.383 -0.339,-0.008 -0.511,0.164 -0.515,0.507 l -0.024,7.149 c 0,0.281 0.141,0.422 0.422,0.422 L 421,616.109 c 0.32,0 0.48,0.161 0.484,0.481" /></g><g
       id="g38"><path
         inkscape:connector-curvature="0"
         id="path40"
         style="fill:none;stroke:#808080;stroke-width:1.5;stroke-linecap:butt;stroke-linejoin:miter;stroke-miterlimit:4;stroke-dasharray:none;stroke-opacity:1"
         d="m 464.895,609.465 0.046,-4.313 c 0.004,-0.355 -0.168,-0.558 -0.519,-0.609 -1.965,-0.27 -3.344,-0.074 -5.34,0.66 -3.859,1.426 -7.805,2.348 -11.84,2.77 -0.25,0.027 -0.437,0.234 -0.437,0.48 l -0.012,7.324 c 0,0.223 0.109,0.332 0.328,0.332 l 5.559,0.008 c 0.238,0 0.359,0.117 0.359,0.36 0.031,6.808 0.051,13.617 0.066,20.421 0.008,3.293 -3.718,2.739 -5.835,2.723 -0.247,-0.004 -0.446,0.195 -0.442,0.441 l 0.09,7.098 c 0.004,0.363 0.191,0.547 0.555,0.547 h 23.476 c 0.164,0 0.301,-0.133 0.301,-0.293 l 0.008,-6.781 c 0,-0.613 -0.309,-0.93 -0.926,-0.953 -3.77,-0.11 -3.801,-0.719 -3.816,-4.289 -0.008,-5.43 -0.016,-10.868 -0.016,-16.313 0,-0.25 0.102,-0.453 0.301,-0.605 3.246,-2.5 12.781,-7.953 12.84,0.8 0.047,5.559 0.054,11.122 0.023,16.688 -0.004,0.977 -0.129,1.851 -0.375,2.625 -0.082,0.254 -0.277,0.457 -0.531,0.547 -1.156,0.41 -2.344,0.555 -3.563,0.437 -0.257,-0.027 -0.383,0.09 -0.383,0.352 v 7.355 c 0,0.293 0.145,0.438 0.434,0.438 l 23.738,-0.008 c 0.325,0 0.489,-0.164 0.489,-0.488 l -0.016,-7.133 c 0,-0.293 -0.145,-0.445 -0.437,-0.457 -2.25,-0.074 -5.84,0.758 -5.879,-2.723 -0.059,-6.316 -0.071,-12.629 -0.036,-18.945 0.09,-15.231 -15.765,-16.027 -25.449,-9.578 -0.718,0.48 -1.472,0.937 -2.258,1.375 -0.226,0.129 -0.511,-0.035 -0.503,-0.293" /></g><g
       id="g42"><path
         inkscape:connector-curvature="0"
         id="path44"
         style="fill:none;stroke:#808080;stroke-width:1.5;stroke-linecap:butt;stroke-linejoin:miter;stroke-miterlimit:4;stroke-dasharray:none;stroke-opacity:1"
         d="m 361.582,636.539 c 3.953,-4.613 3.527,-13.012 1.402,-18.148 -0.726,-1.762 -1.707,-2.938 -2.937,-3.536 -3.27,-1.589 -7.156,0.145 -9.684,2.461 -0.179,0.168 -0.273,0.379 -0.277,0.629 -0.004,4.567 0.004,9.133 0.023,13.703 0.008,1.879 0.418,3.457 1.223,4.727 2.363,3.727 7.492,3.383 10.25,0.164" /></g><g
       id="g46"><path
         inkscape:connector-curvature="0"
         id="path48"
         style="fill:none;stroke:#808080;stroke-width:1.5;stroke-linecap:butt;stroke-linejoin:miter;stroke-miterlimit:4;stroke-dasharray:none;stroke-opacity:1"
         d="m 255.43,624.832 c 2.168,-1.734 2.285,-6.383 1.34,-8.707 -0.493,-1.215 -1,-1.973 -1.512,-2.266 -12.324,-6.992 -14.012,16.575 -1.598,12.489 0.645,-0.211 1.266,-1.114 1.77,-1.516" /></g><g
       id="g50"><path
         inkscape:connector-curvature="0"
         id="path52"
         style="fill:none;stroke:#808080;stroke-width:1.5;stroke-linecap:butt;stroke-linejoin:miter;stroke-miterlimit:4;stroke-dasharray:none;stroke-opacity:1"
         d="m 263.98,657.449 c 3.09,-2.781 -1.48,-4.582 -3.48,-4.867 -4.91,-0.715 -9.828,-1.402 -14.746,-2.062 -0.234,-0.032 -0.445,0.023 -0.629,0.164 -3.676,2.804 -4.832,6.734 0.75,8.121 4.566,1.133 14.316,2.05 18.105,-1.356" /></g><g
       id="g54"><path
         inkscape:connector-curvature="0"
         id="path56"
         style="fill:none;stroke:#808080;stroke-width:1.5;stroke-linecap:butt;stroke-linejoin:miter;stroke-miterlimit:4;stroke-dasharray:none;stroke-opacity:1"
         d="m 304.199,613.941 c -9.277,-0.113 -9.906,12.418 -8.219,18.555 2.731,9.895 13.665,9.512 16.239,-0.105 1.687,-6.309 0.929,-18.336 -8.02,-18.45" /></g><path
       inkscape:connector-curvature="0"
       id="path58"
       style="fill:#00cf35;fill-opacity:1;fill-rule:nonzero;stroke:none"
       d="m 336.16,597.383 -5.183,-0.012 c -0.235,0 -0.422,-0.191 -0.422,-0.426 l 0.011,-7.441 c 0.004,-0.242 0.129,-0.375 0.375,-0.391 5.067,-0.316 9.95,-1.425 14.637,-3.32 0.621,-0.25 2.027,-0.258 4.215,-0.023 0.203,0.019 0.301,0.132 0.301,0.339 l 0.008,21.907 c 0,0.222 0.234,0.371 0.437,0.269 1,-0.48 1.992,-0.992 2.977,-1.531 4.98,-2.723 10.5,-3.035 15.336,-0.531 3.246,1.675 5.812,4.488 7.695,8.445 2.973,6.219 3.285,12.937 0.945,20.16 -2.445,7.524 -9.367,14.211 -17.437,13.508 -4.617,-0.398 -7.731,-1.238 -10.957,-3.684 -0.446,-0.34 -0.817,-0.273 -1.118,0.196 l -1.628,2.511 c -0.145,0.223 -0.387,0.36 -0.653,0.36 h -8.715 c -0.179,0 -0.328,-0.149 -0.328,-0.328 l -0.062,-49.575 c 0,-0.293 -0.145,-0.437 -0.434,-0.437 z m 25.422,39.156 c 3.953,-4.613 3.527,-13.012 1.402,-18.148 -0.726,-1.762 -1.707,-2.938 -2.937,-3.536 -3.27,-1.589 -7.156,0.145 -9.684,2.461 -0.179,0.168 -0.273,0.379 -0.277,0.629 -0.004,4.567 0.004,9.133 0.023,13.703 0.008,1.879 0.418,3.457 1.223,4.727 2.363,3.727 7.492,3.383 10.25,0.164 z" /><path
       inkscape:connector-curvature="0"
       id="path60"
       style="fill:#00b8ff;fill-opacity:1;fill-rule:nonzero;stroke:none"
       d="m 390.594,597.344 -5.399,0.023 c -0.261,0 -0.39,-0.129 -0.39,-0.39 l 0.007,-7.485 c 0,-0.23 0.114,-0.351 0.344,-0.367 4.981,-0.402 9.797,-1.473 14.453,-3.219 0.969,-0.359 2.473,-0.402 4.508,-0.129 0.227,0.035 0.336,0.168 0.336,0.399 -0.004,17.035 0,34.066 0.012,51.097 0.008,2.797 4.137,2.274 5.984,2.387 0.258,0.016 0.391,0.152 0.391,0.418 v 7.305 c 0,0.183 -0.149,0.332 -0.332,0.332 h -25.356 c -0.23,0 -0.347,-0.117 -0.347,-0.348 l 0.007,-7.609 c 0,-0.176 0.086,-0.254 0.258,-0.235 3.868,0.469 5.813,-0.343 5.832,-2.437 0.133,-13.121 0.157,-26.242 0.071,-39.367 0,-0.25 -0.125,-0.375 -0.375,-0.375 z" /><path
       inkscape:connector-curvature="0"
       id="path62"
       style="fill:#7c5cff;fill-opacity:1;fill-rule:nonzero;stroke:none"
       d="m 426.188,600.938 c -4.047,-1.075 -6.438,-5.297 -5.34,-9.43 1.101,-4.129 5.273,-6.606 9.32,-5.528 4.047,1.075 6.434,5.297 5.336,9.43 -1.098,4.129 -5.27,6.606 -9.316,5.528 z" /><path
       inkscape:connector-curvature="0"
       id="path64"
       style="fill:#ff4930;fill-opacity:1;fill-rule:nonzero;stroke:none"
       d="m 237.945,631.777 c 0.375,-0.101 0.469,-0.593 0.153,-0.812 -10.278,-7.289 -6.34,-21.125 4.59,-24.957 7.019,-2.465 13.753,-1.922 20.203,1.633 0.277,0.148 0.617,0.058 0.781,-0.203 2.168,-3.45 6.433,-6.5 10.598,-5.161 4.25,1.368 4.746,7.973 0.214,9.489 -1.574,0.535 -3.816,0.066 -5.847,0.511 -0.5,0.102 -0.739,0.672 -0.465,1.102 5.324,8.527 -0.301,17.715 -9.016,20.43 -4.34,1.351 -8.621,1.586 -12.847,0.711 -1.282,-0.262 -2.2,0.195 -2.754,1.382 l -0.117,0.239 c -0.555,1.187 -0.188,1.886 1.101,2.109 6.57,1.125 12.949,2.082 19.141,2.879 4.14,0.531 7.554,1.82 10.25,3.871 5.535,4.207 4.695,12.523 -0.758,16.785 -8.629,6.75 -30.988,7.695 -40.266,1.371 -8.136,-5.558 -1.867,-11.781 4.215,-14.422 0.063,-0.031 0.063,-0.121 0,-0.148 -4.703,-2.238 -8.676,-6.098 -5.242,-11.543 0.41,-0.652 1.207,-1.418 2.391,-2.305 1.253,-0.937 2.054,-2.535 3.675,-2.961 z m 17.485,-6.945 c 2.168,-1.734 2.285,-6.383 1.34,-8.707 -0.493,-1.215 -1,-1.973 -1.512,-2.266 -12.324,-6.992 -14.012,16.575 -1.598,12.489 0.645,-0.211 1.266,-1.114 1.77,-1.516 z m 8.55,32.617 c 3.09,-2.781 -1.48,-4.582 -3.48,-4.867 -4.91,-0.715 -9.828,-1.402 -14.746,-2.062 -0.234,-0.032 -0.445,0.023 -0.629,0.164 -3.676,2.804 -4.832,6.734 0.75,8.121 4.566,1.133 14.316,2.05 18.105,-1.356 z" /><path
       inkscape:connector-curvature="0"
       id="path66"
       style="fill:#ff8a00;fill-opacity:1;fill-rule:nonzero;stroke:none"
       d="m 327.438,624.957 c -0.098,2.484 0.214,5.508 -0.407,7.766 -2.219,8.039 -7.297,13.16 -15.234,15.367 -6.59,1.836 -15.098,1.101 -20.969,-2.242 -9.711,-5.52 -12.41,-18.196 -8.527,-28.196 5.941,-15.297 29.699,-17.285 39.898,-5.789 3.266,3.684 5.446,8.129 5.239,13.094 z m -23.239,-11.016 c -9.277,-0.113 -9.906,12.418 -8.219,18.555 2.731,9.895 13.665,9.512 16.239,-0.105 1.687,-6.309 0.929,-18.336 -8.02,-18.45 z" /><path
       inkscape:connector-curvature="0"
       id="path68"
       style="fill:#7c5cff;fill-opacity:1;fill-rule:nonzero;stroke:none"
       d="m 421.484,616.59 c -0.004,-0.32 -0.168,-0.481 -0.484,-0.481 l -5.258,0.024 c -0.281,0 -0.422,-0.141 -0.422,-0.422 l 0.024,-7.149 c 0.004,-0.343 0.179,-0.511 0.515,-0.507 5.211,0.007 10.106,-1.117 14.68,-3.383 0.641,-0.32 1.981,-0.36 4.02,-0.113 0.226,0.023 0.336,0.148 0.336,0.375 0.007,10.089 0.011,20.179 0.011,30.261 0,2.325 -0.195,4.262 2.571,4.352 1.539,0.043 2.656,0.07 3.351,0.074 0.242,0.004 0.438,0.203 0.438,0.441 l -0.016,7.352 c 0,0.199 -0.098,0.301 -0.301,0.301 h -25.16 c -0.305,0 -0.457,-0.153 -0.457,-0.457 v -7.32 c -0.004,-0.262 0.227,-0.465 0.484,-0.43 2.836,0.39 4.622,0.074 5.356,-0.946 0.207,-0.289 0.316,-1.679 0.332,-4.167 0.039,-5.993 0.035,-11.926 -0.016,-17.805 z" /><path
       inkscape:connector-curvature="0"
       id="path70"
       style="fill:#ff62ce;fill-opacity:1;fill-rule:nonzero;stroke:none"
       d="m 465.398,609.758 c 0.786,-0.438 1.54,-0.895 2.258,-1.375 9.684,-6.449 25.539,-5.653 25.449,9.578 -0.035,6.316 -0.023,12.629 0.036,18.945 0.039,3.481 3.629,2.649 5.879,2.723 0.292,0.008 0.437,0.16 0.437,0.457 l 0.012,7.133 c 0,0.324 -0.16,0.488 -0.485,0.488 l -23.738,0.008 c -0.289,0 -0.437,-0.145 -0.437,-0.434 v -7.359 c 0,-0.258 0.129,-0.379 0.382,-0.352 1.223,0.121 2.411,-0.027 3.563,-0.437 0.258,-0.09 0.453,-0.293 0.535,-0.547 0.242,-0.774 0.367,-1.648 0.375,-2.625 0.027,-5.563 0.02,-11.125 -0.023,-16.688 -0.063,-8.75 -9.594,-3.296 -12.84,-0.8 -0.199,0.156 -0.301,0.355 -0.301,0.605 0,5.445 0.004,10.883 0.016,16.313 0.011,3.57 0.043,4.179 3.816,4.293 0.613,0.019 0.922,0.336 0.922,0.949 l -0.008,6.781 c 0,0.164 -0.133,0.293 -0.301,0.293 h -23.476 c -0.364,0 -0.547,-0.184 -0.555,-0.547 l -0.09,-7.094 c -0.004,-0.246 0.199,-0.449 0.446,-0.445 2.113,0.016 5.839,0.57 5.832,-2.723 -0.012,-6.804 -0.036,-13.609 -0.067,-20.421 0,-0.239 -0.121,-0.36 -0.359,-0.36 l -5.559,-0.008 c -0.219,0 -0.328,-0.109 -0.328,-0.332 l 0.012,-7.324 c 0,-0.246 0.187,-0.453 0.437,-0.48 4.035,-0.422 7.981,-1.344 11.84,-2.77 1.996,-0.734 3.375,-0.93 5.344,-0.66 0.348,0.051 0.519,0.254 0.516,0.609 l -0.047,4.313 c -0.008,0.258 0.277,0.422 0.504,0.293 z" /></g></svg>