<svg id="managed-icon__npf-strikethrough" fill="var(--icon-color-primary, #444444)" viewBox="0 0 19 18">
  <path
    d="M14.946 10.778c.244.584.371 1.253.371 2.011 0 3.032-2.566 4.906-6.373 4.906-3.966 0-6.519-1.88-6.755-5.531l-.013-.258h2.459c0 2.269 1.717 3.494 4.172 3.566l.232.003h.25c2.316 0 3.57-1.158 3.57-2.578 0-.976-.43-1.665-1.297-2.12l3.384.001zM9.194-.018c3.72 0 6.129 1.993 6.35 5.178l.012.23h-2.459c-.115-1.902-1.588-3.114-3.57-3.195l-.213-.004h-.251c-2.137 0-3.569 1.157-3.569 2.685 0 1.265.837 2.04 2.17 2.367l.193.044.81.157h9.777v1.667H.667V7.444l2.996.002c-.411-.695-.628-1.54-.628-2.546 0-2.71 2.435-4.918 6.16-4.918z" />
</svg>
