<svg id="managed-icon__posts-link-alt" fill="var(--icon-color-primary, #01CF35)" viewBox="0 0 24 24">
  <path fill-rule="evenodd" clip-rule="evenodd"
    d="M17.2987 16.1301L20.8312 12.3755C22.3919 10.7166 22.3919 8.02698 20.8312 6.36809C19.2704 4.7092 16.74 4.7092 15.1792 6.36809L11.6468 10.1227C10.6551 11.1767 10.2935 12.6467 10.562 14.0041C10.6933 14.6683 11.5031 14.7809 11.967 14.2878L12.3532 13.8773C12.9831 13.2078 13.3588 12.3704 13.4803 11.5007C13.5127 11.2684 13.604 11.046 13.7647 10.8752L14.0659 10.5551C14.6075 9.9794 15.5389 10.2449 15.5202 11.0351C15.4828 12.6115 14.8981 14.1761 13.7662 15.3791L10.2338 19.1337C7.89265 21.6221 4.09695 21.6221 1.75584 19.1337C-0.585279 16.6454 -0.585279 12.611 1.75584 10.1227L5.28831 6.36809C7.17121 4.36679 9.99502 3.97508 12.2462 5.19298C12.6958 5.43616 13.2667 5.39718 13.6169 5.02495L13.7662 4.86625C16.1074 2.37792 19.903 2.37792 22.2442 4.86625C24.5853 7.35458 24.5853 11.389 22.2442 13.8773L18.7117 17.6319C17.5596 18.8564 16.0553 19.4784 14.5454 19.4977C13.7956 19.5073 13.5337 18.63 14.0475 18.0838L14.4533 17.6525C14.6266 17.4683 14.8643 17.3624 15.1135 17.3196C15.9135 17.1822 16.6819 16.7857 17.2987 16.1301ZM9.03988 17.399C9.35937 17.0594 9.39405 16.5473 9.18442 16.1309C7.97091 13.72 8.32069 10.6542 10.2338 8.62086L10.7245 8.0993C11.156 7.6406 11.0549 6.89073 10.4438 6.73837C9.14181 6.41377 7.71643 6.79096 6.70129 7.86993L3.16882 11.6245C1.60808 13.2834 1.60808 15.973 3.16882 17.6319C4.72957 19.2908 7.26003 19.2908 8.82078 17.6319L9.03988 17.399Z" />
</svg>
