<svg id="managed-icon__posts-video-alt" fill="var(--icon-color-primary, #FF61CE)" viewBox="0 0 24 24">
  <path fill-rule="evenodd" clip-rule="evenodd"
    d="M10.0417 1.94485C9.78645 2.27502 9.21355 2.27502 8.95834 1.94485C8.04391 0.761823 6.61092 0 5 0C2.23858 0 0 2.23858 0 5C0 7.76142 2.23858 10 5 10H14C16.7614 10 19 7.76142 19 5C19 2.23858 16.7614 0 14 0C12.3891 0 10.9561 0.761823 10.0417 1.94485ZM6 4C6 5.10457 5.10457 6 4 6C3.44772 6 3 6.44771 3 7C3 7.55228 3.44772 8 4 8C6.20914 8 8 6.20914 8 4C8 3.44772 7.55229 3 7 3C6.44772 3 6 3.44772 6 4ZM15 4C15 5.10457 14.1046 6 13 6C12.4477 6 12 6.44771 12 7C12 7.55228 12.4477 8 13 8C15.2091 8 17 6.20914 17 4C17 3.44772 16.5523 3 16 3C15.4477 3 15 3.44772 15 4ZM2 14C2 12.3431 3.34315 11 5 11H15C16.5789 11 17.8729 12.2197 17.9912 13.7683L20.382 12.5729C22.0442 11.7418 24 12.9506 24 14.809V18.191C24 20.0494 22.0442 21.2582 20.382 20.4271L18 19.2361V20C18 21.6569 16.6569 23 15 23H5C3.34314 23 2 21.6569 2 20V14Z" />
</svg>
