<svg id="managed-icon__posts-ask" fill="var(--icon-color-primary, #000000)" viewBox="0 0 20 20">
  <path
    d="M10 0C4.5 0 0 4.5 0 10s4.5 10 10 10 10-4.5 10-10S15.5 0 10 0zM8.7 13.7h2.6v2.5H8.7v-2.5zM14 8.6c-.2.6-.7 1.1-1.2 1.5-.2.2-.5.3-.7.5l-.6.6c-.2.2-.3.5-.3.8v.6H8.9v-.7c0-.5.1-.9.3-1.2.1-.3.3-.6.5-.8l.6-.6c.3-.1.5-.3.7-.5l.5-.5c.1-.2.2-.4.2-.7 0-.5-.1-.9-.4-1.1-.2-.2-.6-.4-1-.4-.3 0-.6.1-.8.2-.3 0-.5.2-.6.4-.2.2-.3.4-.3.7-.1.2-.1.5-.1.8H6c0-.6.1-1.1.3-1.6.2-.5.5-.9.8-1.3.4-.4.8-.7 1.3-.9.5-.2 1.1-.3 1.6-.3.8 0 1.4.1 2 .3.5.2.9.5 1.3.8.3.3.6.7.7 1 .1.4.2.7.2 1 0 .6-.1 1.1-.2 1.4z" />
</svg>
