<svg id="managed-icon__posts-photo-alt" fill="var(--icon-color-primary, #FF4930)" viewBox="0 0 24 24">
  <path fill-rule="evenodd" clip-rule="evenodd"
    d="M16 3H4C3.44772 3 3 3.44772 3 4V16C3 16.5523 3.44772 17 4 17C4.55229 17 5 16.5523 5 16V8C5 6.34315 6.34315 5 8 5H16C16.5523 5 17 4.55228 17 4C17 3.44772 16.5523 3 16 3ZM20 5C19.4477 5 19 4.55228 19 4C19 2.34315 17.6569 1 16 1H4C2.34315 1 1 2.34315 1 4V16C1 17.6569 2.34315 19 4 19C4.55229 19 5 19.4477 5 20C5 21.6569 6.34315 23 8 23H20C21.6569 23 23 21.6569 23 20V8C23 6.34315 21.6569 5 20 5ZM14 10C14 11.1046 13.1046 12 12 12C10.8954 12 10 11.1046 10 10C10 8.89543 10.8954 8 12 8C13.1046 8 14 8.89543 14 10ZM7 17.6829C7 17.4082 7.11304 17.1455 7.31257 16.9567L8.79638 15.5522C9.54271 14.8457 10.7029 14.8198 11.48 15.4923L12.4939 16.3698C12.9005 16.7216 13.5125 16.689 13.8794 16.2959L16.3619 13.636C17.1761 12.7637 18.568 12.7938 19.3437 13.7005L20.7599 15.3557C20.9148 15.5368 21 15.7674 21 16.0058V20C21 20.5523 20.5523 21 20 21H8C7.44772 21 7 20.5523 7 20V17.6829Z" />
</svg>
