<svg id="managed-icon__posts-video" fill="var(--icon-color-primary, #b4b4b4)" viewBox="0 0 16 15">
  <path
    d="M15.7 7.8c-.2-.1-.5 0-.6.1l-2.9 2.2c-.1.1-.1.1-.2.1V8H0v3h2v3.2c0 .4.3.8.8.8h8.4c.5 0 .8-.4.8-.8V12c0 .1.1.2.2.2l2.9 2.2c.2.2.4.2.6.1.2-.1.3-.3.3-.5V8.4c0-.2-.1-.5-.3-.6zM2.8 6.9c.3 0 .8.1 1.1.1h5.5c.3 0 .8-.1 1-.1 1.6-.3 2.8-1.7 2.8-3.4 0-1.9-1.6-3.5-3.5-3.5-1.2 0-2.4.6-3 1.7h-.1C5.9.6 4.8 0 3.6 0 1.6 0 0 1.6 0 3.5c0 1.7 1.2 3 2.8 3.4zM9 4.2c1 0 1.8-.8 1.8-1.8v-.3c.4.3.6.8.6 1.4 0 1-.8 1.8-1.8 1.8-.9 0-1.6-.6-1.8-1.5.3.3.7.4 1.2.4zm-6.2.1c1 0 1.8-.8 1.8-1.8v-.3c.4.2.6.7.6 1.3 0 1-.8 1.8-1.8 1.8-.9 0-1.6-.6-1.8-1.5.3.3.7.5 1.2.5z" />
</svg>
