<svg id="managed-icon__text-quote" fill="var(--icon-color-primary, #FF8A00)" viewBox="0 0 24 24">
  <path
    d="M9.112 4c.442-.005.805.335.875.778.103.64-.439 1.2-1.08 1.228a7.21 7.21 0 00-4.24 1.62C4.074 8.108 4.736 9 5.5 9A5.5 5.5 0 110 14.5V13c.144-4.359 3.327-8.154 7.735-8.879a9.153 9.153 0 011.377-.12zm13 0c.442-.005.805.335.875.778.103.64-.439 1.2-1.079 1.228a7.167 7.167 0 00-4.242 1.619c-.59.484.07 1.375.834 1.375a5.5 5.5 0 11-5.5 5.5V13c.144-4.359 3.327-8.154 7.735-8.879a9.153 9.153 0 011.377-.12zM5 16a2 2 0 002-2 1 1 0 112 0 4 4 0 01-4 4 1 1 0 110-2zm13 0a2 2 0 002-2 1 1 0 112 0 4 4 0 01-4 4 1 1 0 110-2z" />
</svg>
