<svg id="managed-icon__text-font-size" fill="var(--icon-color-primary, #000000)" viewBox="0 0 25 24">
  <path
    d="M10.267 15.637a1 1 0 01.932.638l1.123 2.89a1 1 0 00.932.637h.11a1 1 0 00.932-1.363L8.856 4.487a1 1 0 00-.932-.637H6.735a1 1 0 00-.93.634L.317 18.436a1 1 0 00.93 1.366h.074a1 1 0 00.933-.64l1.114-2.885a1 1 0 01.933-.64h5.966zm4.796-4.111a.15.15 0 00.15.16h1.757a.15.15 0 00.15-.132 1.782 1.782 0 01.768-1.297c.418-.292.975-.445 1.585-.445h.15c.739 0 1.325.235 1.726.66.403.426.637 1.06.637 1.889a.289.289 0 01-.267.288l-2.843.215-.345.037h-.003c-.846.111-1.762.372-2.47.912-.715.545-1.208 1.369-1.208 2.574 0 1.968 1.613 3.415 3.697 3.415 1.033 0 1.944-.302 2.633-.751.345-.225.946 0 1.021.404a.15.15 0 00.148.122h1.65a.15.15 0 00.15-.172c-.116-.758-.116-1.741-.116-2.408V12.36c0-1.157-.376-2.242-1.132-3.04-.758-.8-1.885-1.297-3.364-1.297-2.46 0-4.328 1.408-4.474 3.502zm-10.14.715l1.424-3.682c.33-.852 1.534-.853 1.865-.001L9.64 12.24a1 1 0 01-.932 1.362H5.856a1 1 0 01-.933-1.361zm14.018 5.762h-.203c-1.065 0-1.83-.744-1.83-1.713 0-.506.222-.916.613-1.217.395-.304.966-.498 1.655-.55l1.734-.131a1 1 0 011.076.997v.066c0 .677-.407 1.312-1.006 1.785-.598.473-1.365.763-2.04.763z" />
</svg>
