<?xml version="1.0" encoding="UTF-8" standalone="no"?>
<!-- Created with Inkscape (http://www.inkscape.org/) -->

<svg
   xmlns:dc="http://purl.org/dc/elements/1.1/"
   xmlns:cc="http://creativecommons.org/ns#"
   xmlns:rdf="http://www.w3.org/1999/02/22-rdf-syntax-ns#"
   xmlns:svg="http://www.w3.org/2000/svg"
   xmlns="http://www.w3.org/2000/svg"
   xmlns:sodipodi="http://sodipodi.sourceforge.net/DTD/sodipodi-0.dtd"
   xmlns:inkscape="http://www.inkscape.org/namespaces/inkscape"
   width="11869.893mm"
   height="3637.614mm"
   viewBox="0 0 11869.893 3637.614"
   version="1.1"
   id="svg8"
   inkscape:version="0.92.5 (2060ec1f9f, 2020-04-08)"
   sodipodi:docname="title.svg">
  <defs
     id="defs2" />
  <sodipodi:namedview
     id="base"
     pagecolor="#ffffff"
     bordercolor="#666666"
     borderopacity="1.0"
     inkscape:pageopacity="0.0"
     inkscape:pageshadow="2"
     inkscape:zoom="0.01"
     inkscape:cx="21409.361"
     inkscape:cy="30435.279"
     inkscape:document-units="mm"
     inkscape:current-layer="layer1"
     showgrid="false"
     inkscape:window-width="1848"
     inkscape:window-height="1136"
     inkscape:window-x="72"
     inkscape:window-y="27"
     inkscape:window-maximized="1" />
  <metadata
     id="metadata5">
    <rdf:RDF>
      <cc:Work
         rdf:about="">
        <dc:format>image/svg+xml</dc:format>
        <dc:type
           rdf:resource="http://purl.org/dc/dcmitype/StillImage" />
        <dc:title></dc:title>
      </cc:Work>
    </rdf:RDF>
  </metadata>
  <g
     inkscape:label="Capa 1"
     inkscape:groupmode="layer"
     id="layer1"
     transform="translate(11693.426,3401.9015)">
    <g
       style="fill:none;stroke-width:2;stroke-linecap:butt"
       id="g859"
       transform="matrix(32.736885,0,0,32.736885,-13192.95,-4836.34)"
       inkscape:export-xdpi="96"
       inkscape:export-ydpi="96">
      <path
         style="vector-effect:non-scaling-stroke;stroke:#808080"
         inkscape:connector-curvature="0"
         d="m 190.22,61.14 0.08,66.1 a 0.44,0.44 0 0 0 0.44,0.44 h 11.62 a 1.05,1.03 -73.2 0 0 0.87,-0.48 l 2.17,-3.35 q 0.6,-0.94 1.49,-0.26 c 4.3,3.26 8.45,4.38 14.61,4.91 10.76,0.94 19.99,-7.98 23.25,-18.01 q 4.68,-14.44 -1.26,-26.88 -3.77,-7.91 -10.26,-11.26 c -6.45,-3.34 -13.81,-2.92 -20.45,0.71 q -1.97,1.08 -3.97,2.04 a 0.4,0.4 0 0 1 -0.58,-0.36 l -0.01,-29.21 q 0,-0.41 -0.4,-0.45 -4.38,-0.47 -5.62,0.03 -9.38,3.79 -19.52,4.43 -0.49,0.03 -0.5,0.52 l -0.01,9.92 a 0.57,0.56 90 0 0 0.56,0.57 l 6.91,0.01 q 0.58,0 0.58,0.58"
         id="path837" />
      <path
         style="vector-effect:non-scaling-stroke;stroke:#808080"
         inkscape:connector-curvature="0"
         d="m 262.72,61.01 q 0.17,26.25 -0.09,52.49 -0.04,4.19 -7.78,3.25 -0.34,-0.04 -0.34,0.31 l -0.01,10.15 q 0,0.46 0.46,0.46 h 33.81 a 0.44,0.44 0 0 0 0.44,-0.44 v -9.74 q 0,-0.53 -0.52,-0.56 c -2.46,-0.15 -7.97,0.55 -7.98,-3.18 q -0.02,-34.06 -0.01,-68.13 0,-0.46 -0.45,-0.53 -4.07,-0.55 -6.01,0.17 -9.31,3.49 -19.27,4.29 -0.46,0.03 -0.46,0.49 l -0.01,9.98 q 0,0.52 0.52,0.52 l 7.2,-0.03 q 0.5,0 0.5,0.5"
         id="path839" />
      <path
         style="vector-effect:non-scaling-stroke;stroke:#808080"
         inkscape:connector-curvature="0"
         d="m 309.6764,65.303 a 10.32,10.11 104.9 0 0 12.4237,-7.3734 10.32,10.11 104.9 0 0 -7.1165,-12.5726 10.32,10.11 104.9 0 0 -12.4237,7.3734 10.32,10.11 104.9 0 0 7.1165,12.5726"
         id="path841" />
      <path
         style="vector-effect:non-scaling-stroke;stroke:#808080"
         inkscape:connector-curvature="0"
         d="m 58.69,106.42 c -2.16,0.57 -3.23,2.7 -4.9,3.95 q -2.37,1.77 -3.19,3.07 c -4.58,7.26 0.72,12.41 6.99,15.39 a 0.11,0.11 0 0 1 0,0.2 c -8.11,3.52 -16.47,11.82 -5.62,19.23 12.37,8.43 42.18,7.17 53.69,-1.83 7.27,-5.68 8.39,-16.77 1.01,-22.38 q -5.39,-4.1 -13.67,-5.16 -12.38,-1.59 -25.52,-3.84 -2.58,-0.44 -1.47,-2.81 l 0.16,-0.32 q 1.11,-2.37 3.67,-1.84 8.45,1.75 17.13,-0.95 c 11.62,-3.62 19.12,-15.87 12.02,-27.24 a 0.97,0.97 0 0 1 0.62,-1.47 c 2.71,-0.59 5.7,0.03 7.8,-0.68 6.04,-2.02 5.38,-10.83 -0.29,-12.65 -5.55,-1.79 -11.24,2.28 -14.13,6.88 a 0.79,0.78 30.2 0 1 -1.04,0.27 Q 79.05,67.13 65.01,72.06 c -14.57,5.11 -19.82,23.56 -6.12,33.28 a 0.61,0.6 -34.7 0 1 -0.2,1.08"
         id="path843" />
      <path
         style="vector-effect:non-scaling-stroke;stroke:#808080"
         inkscape:connector-curvature="0"
         d="m 178.01,97.33 c 0.28,-6.62 -2.63,-12.55 -6.98,-17.46 -13.6,-15.33 -45.28,-12.68 -53.2,7.72 -5.18,13.33 -1.58,30.23 11.37,37.59 7.83,4.46 19.17,5.44 27.96,2.99 q 15.87,-4.41 20.31,-20.49 c 0.83,-3.01 0.41,-7.04 0.54,-10.35"
         id="path845" />
      <path
         style="vector-effect:non-scaling-stroke;stroke:#808080"
         inkscape:connector-curvature="0"
         d="m 303.41,86.17 q 0.1,11.76 0.02,23.74 -0.03,4.98 -0.44,5.56 -1.47,2.04 -7.14,1.26 a 0.57,0.57 0 0 0 -0.65,0.57 v 9.76 q 0,0.61 0.61,0.61 h 33.55 q 0.4,0 0.4,-0.4 l 0.02,-9.8 a 0.59,0.59 0 0 0 -0.58,-0.59 q -1.39,-0.01 -4.47,-0.1 c -3.69,-0.12 -3.43,-2.7 -3.43,-5.8 q 0,-20.17 -0.01,-40.35 0,-0.45 -0.45,-0.5 -4.08,-0.49 -5.36,0.15 -9.15,4.53 -19.57,4.51 -0.68,-0.01 -0.69,0.68 L 295.19,85 q 0,0.56 0.56,0.56 l 7.01,-0.03 q 0.64,0 0.65,0.64"
         id="path847" />
      <path
         style="vector-effect:non-scaling-stroke;stroke:#808080"
         inkscape:connector-curvature="0"
         d="m 361.29,76.67 0.06,-5.75 q 0.01,-0.71 -0.69,-0.81 c -2.62,-0.36 -4.46,-0.1 -7.12,0.88 q -7.72,2.85 -15.79,3.69 a 0.65,0.64 -3 0 0 -0.58,0.64 l -0.02,9.77 q 0,0.44 0.44,0.44 l 7.41,0.01 q 0.48,0 0.48,0.48 0.06,13.62 0.09,27.23 c 0.01,4.39 -4.96,3.65 -7.78,3.63 a 0.58,0.58 0 0 0 -0.59,0.59 l 0.12,9.46 q 0.01,0.73 0.74,0.73 h 31.3 a 0.4,0.39 0 0 0 0.4,-0.39 l 0.01,-9.04 q 0,-1.23 -1.23,-1.27 c -5.03,-0.15 -5.07,-0.96 -5.09,-5.72 q -0.02,-10.86 -0.02,-21.75 0,-0.5 0.4,-0.81 c 4.33,-3.33 17.04,-10.6 17.12,1.07 q 0.09,11.12 0.03,22.25 -0.01,1.95 -0.5,3.5 a 1.15,1.13 -1.2 0 1 -0.71,0.73 q -2.31,0.82 -4.75,0.58 -0.51,-0.05 -0.51,0.47 v 9.81 q 0,0.58 0.58,0.58 l 31.65,-0.01 q 0.65,0 0.65,-0.65 l -0.02,-9.51 q 0,-0.59 -0.58,-0.61 c -3,-0.1 -7.79,1.01 -7.84,-3.63 Q 398.83,100.63 398.9,88 C 399.02,67.69 377.88,66.63 364.97,75.23 q -1.44,0.96 -3.01,1.83 a 0.45,0.44 -14.4 0 1 -0.67,-0.39"
         id="path849" />
      <path
         style="vector-effect:non-scaling-stroke;stroke:#808080"
         inkscape:connector-curvature="0"
         d="m 223.54,112.77 c 5.27,-6.15 4.7,-17.35 1.87,-24.2 q -1.46,-3.52 -3.92,-4.71 c -4.36,-2.12 -9.54,0.19 -12.91,3.28 q -0.36,0.34 -0.37,0.84 -0.01,9.13 0.03,18.27 0.02,3.76 1.63,6.3 c 3.15,4.97 9.99,4.51 13.67,0.22"
         id="path851" />
      <path
         style="vector-effect:non-scaling-stroke;stroke:#808080"
         inkscape:connector-curvature="0"
         d="m 82,97.16 c 2.89,-2.31 3.05,-8.51 1.79,-11.61 Q 82.8,83.12 81.77,82.53 C 65.34,73.21 63.09,104.63 79.64,99.18 80.5,98.9 81.33,97.7 82,97.16"
         id="path853" />
      <path
         style="vector-effect:non-scaling-stroke;stroke:#808080"
         inkscape:connector-curvature="0"
         d="m 93.4,140.65 c 4.12,-3.71 -1.97,-6.11 -4.64,-6.49 q -9.82,-1.43 -19.66,-2.75 -0.47,-0.06 -0.84,0.22 c -4.9,3.74 -6.44,8.98 1,10.83 6.09,1.51 19.09,2.73 24.14,-1.81"
         id="path855" />
      <path
         style="vector-effect:non-scaling-stroke;stroke:#808080"
         inkscape:connector-curvature="0"
         d="m 147.03,82.64 c -12.37,-0.15 -13.21,16.56 -10.96,24.74 3.64,13.19 18.22,12.68 21.65,-0.14 2.25,-8.41 1.24,-24.45 -10.69,-24.6"
         id="path857" />
    </g>
    <path
       style="fill:#000000;stroke-width:32.73688507"
       inkscape:connector-curvature="0"
       d="m -6984.7272,-2853.7938 -226.2118,-0.3712 a 18.332655,18.660025 0 0 1 -18.3318,-18.6597 l 0.3712,-324.7503 q 0.3711,-16.0404 16.3682,-17.0228 331.9526,-20.9524 639.0244,-145.0251 40.5933,-16.3682 183.9815,-0.9898 13.0944,1.3115 13.0944,14.7312 l 0.3711,956.2446 a 13.094754,13.094754 0 0 0 18.9876,11.7791 q 65.473,-31.4274 129.9648,-66.7833 c 217.3737,-118.8352 458.3168,-132.5841 669.4694,-23.2439 q 212.4629,109.6693 335.881,368.6175 194.4565,407.2473 41.2479,879.9675 c -106.722,328.35089 -408.883,620.36474 -761.1323,589.59186 -201.6588,-17.35065 -337.518,-54.01555 -478.2856,-160.73883 q -29.1359,-22.26026 -48.778,8.51262 l -71.0396,109.66805 a 33.718992,34.37373 16.8 0 1 -28.4814,15.71371 h -380.4016 a 14.40423,14.40423 0 0 1 -14.4046,-14.40464 l -2.6231,-2163.90837 q 0,-18.9863 -18.9876,-18.9863 z m 1109.781,1709.1921 c 172.5229,-201.3322 153.8632,-567.9849 61.2179,-792.2318 q -47.7957,-115.2347 -128.329,-154.1911 c -142.7324,-69.4026 -312.3093,6.2237 -422.6331,107.3766 q -11.7915,11.1357 -12.1132,27.499 -0.3712,298.8883 0.9899,598.1032 0.6186,123.0903 53.361,206.2418 c 103.1215,162.70239 327.0418,147.6432 447.5139,7.201 z"
       id="path863"
       inkscape:export-xdpi="96"
       inkscape:export-ydpi="96" />
    <path
       style="fill:#000000;stroke-width:32.73688507"
       inkscape:connector-curvature="0"
       d="m -4608.6839,-2855.4307 -235.7055,0.9898 q -17.0228,0 -17.0228,-17.0228 l 0.3712,-326.7139 q 0,-15.0592 15.0592,-16.0416 326.0593,-26.1887 630.8396,-140.4409 63.5106,-23.5706 196.7492,-5.5678 14.7313,2.289 14.7313,17.3506 -0.3712,1115.3464 0.3712,2230.3637 c 0.3712,122.10911 180.7076,99.1931 261.2397,104.1039 q 17.0241,0.9899 17.0241,18.3331 v 318.85706 a 14.40423,14.40423 0 0 1 -14.4047,14.4034 h -1106.8338 q -15.0592,0 -15.0592,-15.05793 l 0.3712,-332.28053 q 0,-11.4574 11.1357,-10.1459 253.3841,30.77292 254.6932,-106.3941 8.5126,-859.0163 2.9448,-1718.3592 0,-16.3683 -16.3683,-16.3683 z"
       id="path865"
       inkscape:export-xdpi="96"
       inkscape:export-ydpi="96" />
    <ellipse
       style="fill:#000000;stroke-width:32.73688507"
       cx="-2160.0649"
       cy="3646.2642"
       transform="rotate(104.9)"
       rx="337.84467"
       ry="330.96988"
       id="ellipse867"
       inkscape:export-xdpi="96"
       inkscape:export-ydpi="96" />
    <path
       style="fill:#000000;stroke-width:32.73688507"
       inkscape:connector-curvature="0"
       d="m -11271.622,-1352.4804 a 19.642131,19.9695 55.3 0 0 6.548,-35.3559 c -448.495,-318.2025 -276.627,-922.1977 200.35,-1089.4843 q 459.626,-161.3922 881.931,71.3674 a 25.862139,25.534771 30.2 0 0 34.047,-8.8343 c 94.609,-150.5893 280.8823,-283.8291 462.5719,-225.2294 185.6182,59.5809 207.2246,347.993 9.4938,414.1205 -68.7474,23.2439 -166.6307,2.9448 -255.3476,22.2615 a 31.754779,31.754779 0 0 0 -20.2969,48.1235 c 232.4318,372.2181 -13.0947,773.2455 -393.4972,891.7528 q -284.156,88.389 -560.783,31.0995 -83.806,-17.3506 -120.144,60.2367 l -5.238,10.4799 q -36.338,77.5874 48.123,91.9908 430.163,73.65767 835.446,125.70962 271.0611,34.70131 447.5129,168.92233 c 241.5982,183.65362 204.9328,546.70579 -33.0643,732.652124 -376.8016,294.631976 -1352.6886,335.879826 -1757.6436,59.907573 -355.195,-242.580017 -81.515,-514.295957 183.982,-629.529387 a 3.6010578,3.6010578 0 0 0 0,-6.54531 c -205.261,-97.55613 -378.766,-266.15057 -228.831,-503.82095 q 26.844,-42.5582 104.43,-100.5022 c 54.671,-40.9212 89.699,-110.6504 160.411,-129.3101 z m 763.097,-303.1434 c 94.61,-75.6225 99.847,-278.5916 58.599,-380.0761 q -32.41,-79.5498 -66.129,-98.8652 c -537.867,-305.107 -611.525,723.4849 -69.729,545.0688 28.154,-9.1684 55.325,-48.4502 77.259,-66.1275 z m 373.2,1423.72728 c 134.876,-121.45456 -64.491,-200.02309 -151.899,-212.4629 q -321.476,-46.81323 -643.607,-90.02592 -15.386,-1.96731 -27.499,7.20108 c -160.411,122.43699 -210.825,293.97744 32.737,354.54078 199.368,49.4326 624.947,89.371393 790.268,-59.25304 z"
       id="path869"
       inkscape:export-xdpi="96"
       inkscape:export-ydpi="96" />
    <path
       style="fill:#000000;stroke-width:32.73688507"
       inkscape:connector-curvature="0"
       d="m -7365.4567,-1650.0584 c -4.2563,108.359 9.4901,240.2885 -17.6785,338.8258 q -145.3518,526.40916 -664.8852,670.77975 c -287.7576,80.20424 -658.9945,48.12229 -915.3234,-97.88401 -423.943,-240.94307 -541.7958,-794.19664 -372.2187,-1230.57984 259.2755,-667.8325 1296.3801,-754.5845 1741.6026,-252.7283 142.4057,160.7375 237.6691,354.8674 228.5032,571.5866 z m -1014.1885,-480.905 c -404.9558,-4.912 -432.4548,542.1229 -358.7971,809.9104 119.1631,431.79899 596.4663,415.10287 708.7537,-4.578 73.6589,-275.3177 40.5945,-800.4178 -349.9566,-805.3274 z"
       id="path871"
       inkscape:export-xdpi="96"
       inkscape:export-ydpi="96" />
    <path
       style="fill:#000000;stroke-width:32.73688507"
       inkscape:connector-curvature="0"
       d="m -3260.2512,-2015.402 q -0.3712,-20.9525 -21.2791,-20.9525 l -229.4857,0.9899 q -18.333,0 -18.333,-18.3331 l 0.9898,-311.9826 q 0.3712,-22.5882 22.5881,-22.2603 341.1186,0.6187 640.6614,-147.6432 41.9036,-20.9525 175.4701,-4.9121 14.7313,1.6332 14.7313,16.3682 0.3712,660.6302 0.3712,1320.9337 c 0,101.4845 -8.5126,185.9451 112.2887,189.8735 q 100.8287,2.9448 146.3329,3.2788 a 19.314762,19.314762 0 0 1 18.9876,19.31428 l -0.6186,320.82189 q 0,13.09434 -13.0944,13.09434 h -1098.3224 q -19.97,0 -19.97,-19.96878 V -996.2928 a 18.660025,18.660025 0 0 1 21.2791,-18.6597 q 185.6184,25.53538 233.7407,-41.2479 13.4222,-18.9876 14.4046,-182.0179 2.6231,-392.1868 -0.6186,-777.1726 z"
       id="path873"
       inkscape:export-xdpi="96"
       inkscape:export-ydpi="96" />
    <path
       style="fill:#000000;stroke-width:32.73688507"
       inkscape:connector-curvature="0"
       d="m -1343.5071,-2313.6358 q 51.3974,-28.4814 98.5386,-59.9088 c 422.63304,-281.5364 1114.6906,-246.8351 1110.76217,418.0501 q -2.289,413.4672 1.63324,826.9344 c 1.63323,151.8983 158.44611,115.5613 256.65677,118.8352 q 18.9876,0.6186 18.9876,19.96876 l 0.61865,311.32809 q 0,21.27908 -21.27908,21.27908 l -1036.12212,0.37119 q -18.9876,0 -18.9876,-18.98636 v -321.14978 q 0,-17.02278 16.69612,-15.38578 79.87759,7.8568 155.5001,-18.9876 a 36.99268,37.647418 88.8 0 0 23.24391,-23.8985 q 16.04035,-50.7416 16.36824,-114.5789 1.96731,-364.3612 -0.98984,-728.3958 c -2.62308,-382.0385 -418.70466,-144.0415 -560.45586,-35.0279 q -13.0944,10.1458 -13.0944,26.5165 0,356.5044 0.6187,712.0276 c 0.6186,155.828 1.9673,182.3446 166.6308,187.2554 q 40.2667,1.3115 40.2667,41.57574 l -0.3712,295.94104 a 13.094754,12.767385 0 0 1 -13.0943,12.76769 h -1024.6648 q -23.8972,0 -24.225,-23.89844 l -3.9223,-309.69114 a 18.987393,18.987393 0 0 1 19.3143,-19.31429 c 92.3186,0.6187 255.021,24.87966 254.6931,-118.8352 q -0.9898,-445.5491 -2.9447,-891.4248 0,-15.7138 -15.7137,-15.7138 l -242.5801,-0.3711 q -14.4046,0 -14.4046,-14.4034 l 0.6187,-319.8395 a 20.951606,21.278975 87 0 1 18.9876,-20.9525 q 264.1869,-27.4989 516.9153,-120.7988 c 87.0799,-32.0819 147.3166,-40.5933 233.0862,-28.808 q 22.916,3.2788 22.5894,26.5166 l -1.9673,188.2365 a 14.40423,14.731599 75.6 0 0 21.9336,12.7677 z"
       id="path875"
       inkscape:export-xdpi="96"
       inkscape:export-ydpi="96" />
    <path
       style="fill:#ffffff;stroke-width:32.73688507"
       inkscape:connector-curvature="0"
       d="m -10508.525,-1655.6238 c -21.934,17.6773 -49.105,56.9616 -77.259,66.1275 -541.796,178.4161 -468.138,-850.1758 69.729,-545.0688 q 33.719,19.3154 66.129,98.8652 c 41.248,101.4845 36.011,304.4536 -58.599,380.0761 z"
       id="path877"
       inkscape:export-xdpi="96"
       inkscape:export-ydpi="96" />
    <path
       style="fill:#ffffff;stroke-width:32.73688507"
       inkscape:connector-curvature="0"
       d="m -8738.4423,-1321.053 c -73.6577,-267.7875 -46.1587,-814.8212 358.7971,-809.9104 390.5511,4.9121 423.6155,530.0097 349.9566,805.3274 -112.2874,419.68587 -589.5906,436.38199 -708.7537,4.578 z"
       id="path879"
       inkscape:export-xdpi="96"
       inkscape:export-ydpi="96" />
    <path
       style="fill:#ffffff;stroke-width:32.73688507"
       inkscape:connector-curvature="0"
       d="m -5874.9462,-1144.6017 c -120.4721,140.4409 -344.3924,155.50009 -447.5139,-7.2011 q -52.7053,-83.1515 -53.3611,-206.2418 -1.3115,-299.2149 -0.9898,-598.1032 0.3712,-16.3682 12.1132,-27.499 c 110.3238,-101.1566 279.9007,-176.7791 422.6331,-107.3765 q 80.5333,38.9564 128.329,154.191 c 92.6452,224.247 111.305,590.8997 -61.2179,792.2318 z"
       id="path881"
       inkscape:export-xdpi="96"
       inkscape:export-ydpi="96" />
    <path
       style="fill:#ffffff;stroke-width:32.73688507"
       inkscape:connector-curvature="0"
       d="m -10135.325,-231.89652 c -165.321,148.624433 -590.9,108.68564 -790.268,59.25304 -243.562,-60.56334 -193.148,-232.10379 -32.737,-354.54078 q 12.113,-9.16839 27.499,-7.20108 322.131,43.21269 643.607,90.02592 c 87.408,12.43981 286.775,91.00834 151.899,212.4629 z"
       id="path883"
       inkscape:export-xdpi="96"
       inkscape:export-ydpi="96" />
  </g>
</svg>
